<svg id="e6d15d18-a685-4480-ac2b-bd578043a679" xmlns="http://www.w3.org/2000/svg" viewBox="0 0 1041.28 554.14"><defs><style>.cls-1{fill:#f2f2f2;}.cls-2,.cls-4{isolation:isolate;}.cls-2{opacity:0.1;}.cls-3{fill:#65617d;}.cls-4{opacity:0.2;}.cls-5{fill:#3f3d56;}.cls-6{fill:#f4f4f4;}.cls-7{fill:#fbbebe;}.cls-10,.cls-11,.cls-12,.cls-13,.cls-8,.cls-9{fill:none;stroke-linecap:round;stroke-miterlimit:10;stroke-width:10px;}.cls-8{stroke:#652d90;}.cls-10,.cls-8,.cls-9{stroke-dasharray:0 31.42;}.cls-9{stroke:#262261;}.cls-10{stroke:#90278e;}.cls-11{stroke:#eb008b;stroke-dasharray:0 32.51;}.cls-12{stroke:#ec297b;}.cls-12,.cls-13{stroke-dasharray:0 31.41;}.cls-13{stroke:#d91c5c;}.cls-14{fill:#ff6584;}.cls-15{fill:#4b4196;}</style></defs><path class="cls-1" d="M961.48,438.21q-1.74,3.75-3.47,7.4-2.7,5.67-5.33,11.12c-.78,1.61-1.56,3.19-2.32,4.77-8.6,17.57-16.63,33.11-23.45,45.89a73.21,73.21,0,0,1-63.81,38.7l-151.65,1.65h-1.6l-13,.14-11.12.12-34.1.37h-1.38l-17.36.19h-.53l-107,1.16-95.51,1-11.11.12-69,.75h-.08l-44.75.48h-.48l-141.5,1.53-42.33.46a88.41,88.41,0,0,1-10.79-.54h0c-1.22-.14-2.44-.3-3.65-.49a87.43,87.43,0,0,1-51.29-27.54c-18.21-20-31.46-43.4-40.36-68.76q-1.93-5.49-3.6-11.12C-19.9,341.46,17.66,207.09,85.26,117.17q4.24-5.64,8.64-11l.07-.08c20.79-25.52,44.1-46.84,68.93-62,44-26.91,92.75-34.49,140.7-11.9,40.57,19.12,78.45,28.11,115.17,30.55,3.71.24,7.42.42,11.11.53C514.11,65.92,593.05,35.57,685.75,16c3.69-.78,7.39-1.55,11.12-2.28C763,.54,836.36-6.4,923.6,8.19a189.07,189.07,0,0,1,26.76,6.4q5.77,1.86,11.12,4c41.64,16.94,64.35,48.24,74,87.46q1.37,5.46,2.37,11.11C1055,211.5,1004.85,345.32,961.48,438.21Z" transform="translate(-0.01 -0.03)"/><path class="cls-2" d="M497,445.61a95.22,95.22,0,0,1-1.87,11.12h93.7V445.61Zm-78.25,62.81,11.11-.09V480.86c-3.81-.17-7.52-.34-11.11-.52ZM185.85,445.61v11.12h198.5V445.61Zm849.68-339.52h-74V18.6q-5.35-2.18-11.12-4v91.49H696.87V13.67c-3.73.73-7.43,1.5-11.12,2.28v90.14H429.88V63.24c-3.69-.11-7.4-.29-11.11-.53v43.38H162.9v-62c-24.83,15.16-48.14,36.48-68.93,62H93.9v.08q-4.4,5.4-8.64,11H93.9V445.61h-83q1.66,5.63,3.6,11.12H93.89v93.62a87.62,87.62,0,0,0,12.2,2.79c1.21.19,2.43.35,3.65.49h0a88.41,88.41,0,0,0,10.79.54l42.33-.46v-97H418.77v94.21l11.11-.12V456.73H685.75v91.36l11.12-.12V456.73H950.36v4.77c.76-1.58,1.54-3.16,2.32-4.77q2.63-5.44,5.33-11.12c1.15-2.43,2.31-4.89,3.47-7.4v-321h76.42Q1036.9,111.53,1035.53,106.09ZM162.9,445.61V117.17H418.77V445.61Zm267,0V117.17H685.75V445.61Zm520.48,0H696.87V117.17H950.36Z" transform="translate(-0.01 -0.03)"/><polygon class="cls-3" points="863.08 533.62 863.08 546.62 711.16 548.01 709.54 548.04 651.8 548.58 650.42 548.6 632.87 548.75 632.35 548.75 525.37 549.74 349.76 551.37 349.61 551.37 304.96 551.78 304.48 551.79 106.08 553.62 106.08 538.62 152.73 510.62 246.33 509.83 248.33 509.82 248.99 509.81 250.99 509.79 295.93 509.42 297.94 509.4 298.58 509.39 300.58 509.38 314.99 509.26 315.37 509.25 350.92 508.95 351.21 508.95 628.61 506.62 635.4 506.56 636.08 506.56 641.26 506.51 678.91 506.2 680.91 506.18 682.76 506.15 683.72 506.15 695.43 506.06 697.75 506.04 700.86 506.01 710.61 505.93 726.08 505.8 728.08 505.77 731.56 505.75 732.21 505.75 806.92 505.12 863.08 533.62"/><polygon class="cls-4" points="863.08 533.62 863.08 546.62 711.16 548.01 709.54 548.04 651.8 548.58 650.42 548.6 632.87 548.75 632.35 548.75 525.37 549.74 349.76 551.37 349.61 551.37 304.96 551.78 304.48 551.79 106.08 553.62 106.08 538.62 152.73 510.62 246.33 509.83 248.33 509.82 248.99 509.81 250.99 509.79 295.93 509.42 297.94 509.4 298.58 509.39 300.58 509.38 314.99 509.26 315.37 509.25 350.92 508.95 351.21 508.95 628.61 506.62 635.4 506.56 636.08 506.56 641.26 506.51 678.91 506.2 680.91 506.18 682.76 506.15 683.72 506.15 695.43 506.06 697.75 506.04 700.86 506.01 710.61 505.93 726.08 505.8 728.08 505.77 731.56 505.75 732.21 505.75 806.92 505.12 863.08 533.62"/><path class="cls-5" d="M296.1,483.66v24.49a6.13,6.13,0,0,1-3.5,5.54,6,6,0,0,1-2.5.6l-34.9.74a6,6,0,0,1-2.7-.57,6.12,6.12,0,0,1-3.57-5.57V483.66Z" transform="translate(-0.01 -0.03)"/><path class="cls-2" d="M296.1,483.66v24.49a6.13,6.13,0,0,1-3.5,5.54,6,6,0,0,1-2.5.6l-34.9.74a6,6,0,0,1-2.7-.57,6.12,6.12,0,0,1-3.57-5.57V483.66Z" transform="translate(-0.01 -0.03)"/><path class="cls-5" d="M298.1,483.66v24.49a6.13,6.13,0,0,1-3.5,5.54,6,6,0,0,1-2.5.6l-34.9.74a6,6,0,0,1-2.7-.57,6.12,6.12,0,0,1-3.57-5.57V483.66Z" transform="translate(-0.01 -0.03)"/><rect class="cls-5" x="680.91" y="483.62" width="47.17" height="31.5"/><rect class="cls-2" x="680.91" y="483.62" width="47.17" height="31.5"/><rect class="cls-5" x="678.91" y="483.62" width="47.17" height="31.5"/><polygon class="cls-2" points="298.08 483.62 298.08 488.58 250.91 489.85 250.91 483.62 298.08 483.62"/><path class="cls-3" d="M448,214.57v261a6.31,6.31,0,0,1-6.17,6.13l-307.37,7.91h-.08a6.31,6.31,0,0,1-6.34-6.13V214.57a6.31,6.31,0,0,1,6.34-6.13H441.63A6.31,6.31,0,0,1,448,214.57Z" transform="translate(-0.01 -0.03)"/><path class="cls-2" d="M185.85,308.41v181.2h0a4,4,0,0,1-4-3.95V312.36a4,4,0,0,1,4-3.95Z" transform="translate(-0.01 -0.03)"/><polygon class="cls-6" points="135.99 214.97 440.99 214.97 440.99 469.74 135.99 476.62 135.99 214.97"/><polygon class="cls-2" points="726.08 483.62 726.08 490.02 678.91 488.76 678.91 483.62 726.08 483.62"/><path class="cls-2" d="M788.35,312.36v173.3a4,4,0,0,1-4,3.95h0V308.41h0A4,4,0,0,1,788.35,312.36Z" transform="translate(-0.01 -0.03)"/><polygon class="cls-2" points="863.08 533.62 863.08 546.62 711.16 548.01 709.54 548.04 651.8 548.58 650.42 548.6 632.87 548.75 632.35 548.75 525.37 549.74 349.76 551.37 349.61 551.37 304.96 551.78 304.48 551.79 106.08 553.62 106.08 538.62 308.59 537.28 309.07 537.28 350.06 537 350.25 537 633.33 535.13 633.62 535.13 633.79 535.13 634.26 535.13 639.05 535.1 640.51 535.1 715 534.6 719.4 534.58 720.38 534.57 863.08 533.62"/><path class="cls-7" d="M538.6,377.16s-99.5,12-90,0c3.44-4.34,4.39-17.2,4.2-31.85-.06-4.45-.22-9.06-.45-13.65-1.1-22-3.75-43.5-3.75-43.5s87-41,77-8.5c-4,13.13-2.69,31.57.35,48.88.89,5,1.92,10,3,14.7A346.73,346.73,0,0,0,538.6,377.16Z" transform="translate(-0.01 -0.03)"/><path class="cls-2" d="M637,484.26l-.1,1.43v.1l-.17,2.3-1.33,18.51-1.61,22.3-.46,6.28-1,13.44v.17l-107,1-175.59,1.9v.84h-.14v-1.12l.45-14.36.86-28.06.74-23.79.07-2.37a10.53,10.53,0,0,1,10.85-10.2,5.44,5.44,0,0,1,.57,0c4.72.4,10.85.89,18.18,1.41l3,.22c42.33,2.94,120.56,6.74,199.5,2,1.66-.09,3.33-.19,5-.31,12.24-.77,24.47-1.76,36.58-3A10.53,10.53,0,0,1,637,482.36a11.41,11.41,0,0,1,0,1.85Z" transform="translate(-0.01 -0.03)"/><path class="cls-2" d="M298.1,505v3.19a6.13,6.13,0,0,1-3.5,5.54l-40.1.77a6.12,6.12,0,0,1-3.57-5.57v-3Z" transform="translate(-0.01 -0.03)"/><polygon class="cls-5" points="298.58 515.53 246.33 516.53 246.33 507.87 298.58 506.87 298.58 515.53"/><polygon class="cls-2" points="298.58 515.53 246.33 516.53 246.33 507.87 298.58 506.87 298.58 515.53"/><polygon class="cls-5" points="300.58 515.53 248.33 516.53 248.33 507.87 300.58 506.87 300.58 515.53"/><path class="cls-2" d="M679.22,507v3.19a6.13,6.13,0,0,0,3.5,5.54l40.1.77a6.12,6.12,0,0,0,3.57-5.57v-3Z" transform="translate(-0.01 -0.03)"/><polygon class="cls-2" points="678.71 517.53 730.96 518.53 730.96 509.87 678.71 508.87 678.71 517.53"/><polygon class="cls-5" points="676.71 517.53 728.96 518.53 728.96 509.87 676.71 508.87 676.71 517.53"/><path class="cls-1" d="M300.26,342.59h-99.6a.5.5,0,0,1,0-1h99.6a.5.5,0,0,1,0,1Z" transform="translate(-0.01 -0.03)"/><path class="cls-1" d="M300.26,351.59h-99.6a.5.5,0,0,1,0-1h99.6a.5.5,0,0,1,0,1Z" transform="translate(-0.01 -0.03)"/><path class="cls-8" d="M284.71,235.11A100,100,0,1,1,214,264.4,100,100,0,0,1,284.71,235.11Z" transform="translate(-0.01 -0.03)"/><path class="cls-9" d="M285.06,221.39a120,120,0,1,1-84.81,35.14A120,120,0,0,1,285.06,221.39Z" transform="translate(-0.01 -0.03)"/><path class="cls-10" d="M285.25,247.61A80,80,0,1,1,228.68,271,80,80,0,0,1,285.25,247.61Z" transform="translate(-0.01 -0.03)"/><path class="cls-11" d="M285.06,303.26a22.39,22.39,0,0,1,5.36.56c1.37.34,2.22.82,2.22,1.35s-.85,1-2.22,1.35a26.16,26.16,0,0,1-10.72,0c-1.37-.35-2.22-.82-2.22-1.35s.85-1,2.22-1.35A22.5,22.5,0,0,1,285.06,303.26Z" transform="translate(-0.01 -0.03)"/><path class="cls-12" d="M285.25,288.61a20,20,0,1,1-14.14,5.86A20,20,0,0,1,285.25,288.61Z" transform="translate(-0.01 -0.03)"/><path class="cls-13" d="M285.25,275.61A40,40,0,1,1,257,287.32,40,40,0,0,1,285.25,275.61Z" transform="translate(-0.01 -0.03)"/><path class="cls-13" d="M285.25,260.61a60,60,0,1,1-42.43,17.57A60,60,0,0,1,285.25,260.61Z" transform="translate(-0.01 -0.03)"/><path class="cls-3" d="M577.32,208.39h307.3a6.31,6.31,0,0,1,6.33,6.13V483.43a6.31,6.31,0,0,1-6.33,6.13h-.08l-307.38-7.91a6.31,6.31,0,0,1-6.17-6.13v-261A6.31,6.31,0,0,1,577.32,208.39Z" transform="translate(-0.01 -0.03)"/><polygon class="cls-6" points="883.46 476.62 578.46 469.74 578.46 214.97 883.46 214.97 883.46 476.62"/><circle class="cls-7" cx="487.25" cy="298.12" r="51.33"/><path class="cls-14" d="M506.13,373.09c11.51-2.13,23.7-6,34.53-1.54,2.85,1.17,5.47,2.88,8.39,3.86s6.12,1.22,9.16,1.91c10.68,2.42,19.34,10.55,24.9,20s8.44,20.14,11.26,30.72l6.9,25.83c6,22.45,12,45.09,13.39,68.3a2437.61,2437.61,0,0,1-250.84,1.43c5.44-10.34,11-21.31,10.54-33s-7.19-23.22-4.76-34.74c1.55-7.34,6.57-13.39,9.64-20.22,8.75-19.52,1.94-45.79,17.32-60.65,6.92-6.68,17-9.21,26.63-8.89,12.28.41,24.85,4.24,37,6.11C475.75,374.57,490.45,376,506.13,373.09Z" transform="translate(-0.01 -0.03)"/><path class="cls-2" d="M637.33,491.27,636.1,506.6l-1.83,22.85-.46,5.72-1,12.81-.06.64v.17h0l-.15,1.48.11-1.48h-.29l-107,1-175.65,1.9v-.28l.49-14.36,1-28.06.64-18.65a6.36,6.36,0,0,1,3.06-5.25,6.27,6.27,0,0,1,3.78-.9c2.1.17,4.68.37,7.69.59,4.89.36,10.92.78,17.94,1.22,13,.82,29.31,1.7,48,2.42,52,2,122.2,2.67,188.88-3.17,3-.26,6.1-.55,9.13-.84a6.26,6.26,0,0,1,3.48.66,5.16,5.16,0,0,1,.86.54,6.15,6.15,0,0,1,2,2.46,3.56,3.56,0,0,1,.25.61A6.34,6.34,0,0,1,637.33,491.27Z" transform="translate(-0.01 -0.03)"/><path class="cls-5" d="M454.79,313.88c.08,7-3.16,13.6-5.91,20.07a163.52,163.52,0,0,0-12.66,74.71c.73,11,2.58,22,.73,32.9s-8.43,21.77-19,24.9c17.53,10.45,41.26,9.35,57.76-2.66,8.79-6.4,15.34-15.33,21.75-24.11a97.86,97.86,0,0,1-13.31,44.75,103.43,103.43,0,0,0,73.51-40.82c4.31-5.81,8.06-12.19,9.72-19.23,3.09-13-1.22-26.51-4.51-39.5a265.94,265.94,0,0,1-6.17-33c-.43-3.56-.78-7.22.1-10.7,1-4.07,3.67-7.51,5.64-11.22,5.6-10.54,5.73-23.3,2.86-34.88s-8.49-22.26-14.06-32.81c-4.46-8.46-9.3-17.31-17.46-22.28-5.1-3.1-11-4.39-16.88-5.64l-25.37-5.43c-5.55-1.19-11.26-2.38-16.87-1.51-9.47,1.48-16.14,8.32-22,15.34-4.59,5.46-15.81,15.71-16.6,22.86-.72,6.59,5.1,17.63,6.09,24.58,1.3,9,2.22,6,7.3,11.52C452.66,305.14,454.73,309.09,454.79,313.88Z" transform="translate(-0.01 -0.03)"/><path class="cls-5" d="M349.74,552.53v-.84l175.62-1.91,107-1h.3v-.17l1-13.44.43-6,1.64-22.61,1.29-17.9v-.44a10.77,10.77,0,0,0-.11-2.47.17.17,0,0,0,0-.1,10.32,10.32,0,0,0-2-4.64,10.55,10.55,0,0,0-9.42-4c-12.11,1.24-24.34,2.23-36.58,3-1.67.12-3.34.22-5,.31-78.94,4.69-157.17.89-199.5-2l-3-.22c-7.33-.52-13.46-1-18.18-1.41A10.54,10.54,0,0,0,352,485.22a11.27,11.27,0,0,0-.18,1.64L351.13,509l-.93,28.07-.44,14.36v1.12Z" transform="translate(-0.01 -0.03)"/><path class="cls-2" d="M768.92,314H758.57V294a41.34,41.34,0,1,0-82.66-2.1c0,.41,0,.83,0,1.24V314H665.56a17.29,17.29,0,0,0-17.22,17.23v82.67a17.3,17.3,0,0,0,17.22,17.24H768.92a17.3,17.3,0,0,0,17.22-17.24V331.32A17.27,17.27,0,0,0,768.92,314Zm-45.64,53.75v29.6a6.19,6.19,0,0,1-5.72,6.21,6,6,0,0,1-6.32-5.75v-30a13.75,13.75,0,1,1,12,0ZM746.53,314H688V293.43a29.29,29.29,0,0,1,58.57,0Z" transform="translate(-0.01 -0.03)"/><path class="cls-15" d="M782.65,316.45H772.3V296.4a41.34,41.34,0,1,0-82.66-2.1c0,.41,0,.82,0,1.23v20.92H679.29a17.27,17.27,0,0,0-17.22,17.22v82.68a17.29,17.29,0,0,0,17.22,17.23H782.65a17.29,17.29,0,0,0,17.22-17.23V333.73A17.26,17.26,0,0,0,782.65,316.45ZM737,370.19V399.8a6.18,6.18,0,0,1-5.73,6.21,6,6,0,0,1-6.31-5.75h0v-30a13.74,13.74,0,1,1,12.06,0Zm23.26-53.74H701.68V295.83a29.29,29.29,0,0,1,58.57,0Z" transform="translate(-0.01 -0.03)"/></svg>