<svg id="a6791429-d438-45aa-bc7c-827b738cb04a" xmlns="http://www.w3.org/2000/svg" viewBox="0 0 928.53 635.21"><defs><style>.cls-1{fill:#f2f2f2;}.cls-2{fill:#e6e6e6;}.cls-3{fill:#4b4196;}.cls-4{fill:#2f2e41;}.cls-5{fill:#a0616a;}.cls-6{fill:#3f3d56;}.cls-7{fill:#ccc;}.cls-10,.cls-11,.cls-12,.cls-13,.cls-8,.cls-9{fill:none;stroke-linecap:round;stroke-miterlimit:10;stroke-width:10px;}.cls-8{stroke:#652d90;}.cls-10,.cls-8,.cls-9{stroke-dasharray:0 31.42;}.cls-9{stroke:#262261;}.cls-10{stroke:#90278e;}.cls-11{stroke:#eb008b;stroke-dasharray:0 32.51;}.cls-12{stroke:#ec297b;}.cls-12,.cls-13{stroke-dasharray:0 31.41;}.cls-13{stroke:#d91c5c;}</style></defs><circle class="cls-1" cx="546.41" cy="233" r="233"/><path class="cls-2" d="M131.41,563.35a39.07,39.07,0,0,0,37.72-6.65c13.21-11.09,17.36-29.36,20.73-46.27l10-50L179,474.76c-15,10.34-30.35,21-40.75,36s-14.92,35.41-6.57,51.61"/><path class="cls-1" d="M133.2,623.92c-2.12-15.38-4.29-31-2.81-46.52,1.32-13.81,5.53-27.3,14.11-38.37a63.8,63.8,0,0,1,16.38-14.83c1.63-1,3.14,1.56,1.51,2.59a60.6,60.6,0,0,0-24,29c-5.22,13.29-6.06,27.78-5.16,41.9.54,8.53,1.7,17,2.86,25.49A1.55,1.55,0,0,1,135,625a1.49,1.49,0,0,1-1.84-1.05Z"/><path class="cls-2" d="M273,602.73a22.25,22.25,0,0,0,20.46,7.61c9.69-1.65,17-9.44,23.53-16.78l19.32-21.73-14.4,1c-10.36.76-21,1.58-30.41,5.94S274,591.93,273.39,602.3"/><path class="cls-1" d="M256.41,633c3.4-8.17,6.82-16.46,12-23.68,4.63-6.41,10.59-11.83,18-14.8A36.22,36.22,0,0,1,298.77,592c1.1,0,1.09,1.67,0,1.71A34.48,34.48,0,0,0,278.62,601c-6.4,5-11,11.9-14.62,19.1-2.19,4.36-4.07,8.86-5.94,13.36a.88.88,0,0,1-1,.61.86.86,0,0,1-.61-1.05Z"/><path class="cls-2" d="M153.54,596.7a28.76,28.76,0,0,0,25.06,12.93c12.68-.61,23.25-9.46,32.77-17.86l28.16-24.86L220.89,566c-13.4-.64-27.14-1.24-39.9,2.89S156.45,583,154.12,596.2"/><path class="cls-1" d="M127.23,632.77c10.16-18,22-38,43-44.38a48.16,48.16,0,0,1,18.1-1.87c1.92.17,1.44,3.13-.48,3A44.59,44.59,0,0,0,159,597.13c-8.15,5.54-14.49,13.25-19.86,21.42-3.28,5-6.23,10.23-9.17,15.44C129,635.66,126.27,634.45,127.23,632.77Z"/><path class="cls-3" d="M566.33,325.68c20.22-11.11,45.38-8.88,67.16-1.28s41.53,20,62.68,29.25c64.64,28.13,142.55,23.59,203.49-11.85,5.76,13.4-.42,28.74-7.21,41.65s-14.54,26.92-11.74,41.24C884.29,443,903.5,454,911.29,471c7.39,16.11,3.42,35-2.25,51.83S896,556.52,897,574.22s13.82,36.42,31.55,36.43c-26.27,4.08-53.06,8.17-79.31,4s-52.37-18.06-64.56-41.69c-6.09-11.81-8.44-25.39-15.44-36.68C757.3,517,734.43,508,712.85,501.15S668.17,487.76,653,471c-14.48-16-19.07-38.25-26.74-58.4a186.49,186.49,0,0,0-64.59-84.23"/><path class="cls-4" d="M589.76,241.94c-7.1-3.3-15.81-4.38-23-1.31s-12.15,10.93-9.81,17.89c1.06,3.15,3.47,6.26,2.53,9.44-.73,2.46-3.25,4.08-5.73,5.23s-5.18,2.12-7,4.06-2.17,5.28.07,6.79c.74.5,1.66.73,2.37,1.26a3.77,3.77,0,0,1,1.17,4.22,8.94,8.94,0,0,1-2.85,3.75c-2.54,2.19-5.9,4.7-5.11,7.81a5.47,5.47,0,0,0,3.69,3.45,18.51,18.51,0,0,0,5.43.72l75,2.36a28.26,28.26,0,0,0,7.4-.41,8.76,8.76,0,0,0,5.81-3.91c1.44-2.65.49-5.93-1.28-8.41s-4.28-4.44-6.35-6.71-3.77-5.13-3.41-8.07c.3-2.36,1.85-4.4,3-6.54s1.76-4.82.31-6.79c-2-2.77-6.92-2.52-9.24-5.11-1.75-2-1.41-4.76-1.58-7.28-.42-6.06-4.61-11.78-10.58-14.43a20.81,20.81,0,0,0-19,1.29Z"/><polygon class="cls-5" points="542.38 622.1 530.64 618.57 538.66 571.6 555.99 576.81 542.38 622.1"/><path class="cls-4" d="M542,634.38,504.1,623l.15-.48a15.38,15.38,0,0,1,19.16-10.31h0l23.12,6.95Z"/><polygon class="cls-5" points="653.18 622.5 640.92 622.5 635.09 575.21 653.18 575.21 653.18 622.5"/><path class="cls-4" d="M656.31,634.38H616.78v-.5a15.39,15.39,0,0,1,15.38-15.39h24.15Z"/><path class="cls-4" d="M636.16,586.73a4.5,4.5,0,0,1-4.44-3.79l-18.2-113.55a3.5,3.5,0,0,0-6.69-.79L559.67,582.13a4.51,4.51,0,0,1-5.58,2.55l-17-5.68a4.49,4.49,0,0,1-3-5.26l38.65-171a4.5,4.5,0,0,1,3.37-3.39l51.83-12a4.59,4.59,0,0,1,3.71.77c34.13,24.8,31.25,105.82,24.89,193.8a4.5,4.5,0,0,1-4.3,4.17l-15.88.7Z"/><circle class="cls-5" cx="592.53" cy="282.47" r="24.56"/><path class="cls-6" d="M593.59,409.77a39.83,39.83,0,0,1-17-3.94l-.18-.08-.08-.19-22-57.08-.42-9.91a23.78,23.78,0,0,1,22.75-24.76,22.83,22.83,0,0,1,2.34,0l23.39,1.31a23.79,23.79,0,0,1,22.44,23.61c.61,1.17,4.92,10.3-3.53,18.87-.32,1.95-3.28,22.25,7.88,33.41l.32.31-.28.35C629,391.92,614.66,409.76,593.59,409.77Z"/><path class="cls-5" d="M626.43,414.07a10.06,10.06,0,0,0,6-12.88,9.7,9.7,0,0,0-.75-1.6l23.36-27-18.41-2.39-19.36,26a10.11,10.11,0,0,0,9.13,17.88Z"/><path class="cls-6" d="M641,393.2a4.5,4.5,0,0,1-2.47-.74L627,384.88a4.48,4.48,0,0,1-1.4-6.06L634,364.77a6.27,6.27,0,0,0-2.18-8.6,5.54,5.54,0,0,0-.64-.33l-24-10.78A14.31,14.31,0,0,1,599,329.15h0a14.24,14.24,0,0,1,16.86-11,14.59,14.59,0,0,1,3.57,1.26l36.45,18.68a19.18,19.18,0,0,1,8.32,25.82,19.41,19.41,0,0,1-1.51,2.47l-18,25A4.5,4.5,0,0,1,641,393.2Z"/><path class="cls-4" d="M567.4,279c7.76-.62,14.2-8.37,13.39-16.11a13,13,0,0,0,11.15,13.24c3.55.4,7.45-.68,10.55,1.11,3.43,2,4.53,6.82,8.1,8.54s7.84-.61,9.55-4,1.28-7.55.15-11.21a31.65,31.65,0,0,0-52.69-13c-3.26,3.28-5.85,7.46-6.27,12.07s1.72,9.6,5.86,11.67Z"/><path class="cls-5" d="M510.26,210.94a10.06,10.06,0,0,1,4.08,13.63,10.18,10.18,0,0,1-1,1.48l19.16,30.16L514,255.89,498.61,227.3a10.11,10.11,0,0,1,11.65-16.36Z"/><path class="cls-6" d="M525.71,232.42l24.67,58.31,25.87,43.86a14.19,14.19,0,0,1-5,19.43,14,14,0,0,1-3.1,1.36h0a14.26,14.26,0,0,1-17-7.57L501.32,241.28a4.5,4.5,0,0,1,2.17-6,3.44,3.44,0,0,1,.53-.21l16.17-5.2a4.9,4.9,0,0,1,.94-.19A4.48,4.48,0,0,1,525.71,232.42Z"/><path class="cls-7" d="M757,635.21H1a1,1,0,0,1,0-2H757a1,1,0,0,1,0,2Z"/><path class="cls-7" d="M597.86,108.21v82a1,1,0,1,1-2,0v-82a1,1,0,0,1,2,0Z"/><path class="cls-7" d="M684.68,177.78,656.4,206.06a1,1,0,1,1-1.41-1.41l28.28-28.29a1,1,0,0,1,1.42,1.41Z"/><path class="cls-7" d="M509,177.78l28.29,28.28a1,1,0,1,0,1.41-1.41l-28.28-28.29a1,1,0,0,0-1.42,0,1,1,0,0,0,0,1.41Z"/><path class="cls-8" d="M163.17,64.94A100,100,0,1,1,92.46,94.23,100,100,0,0,1,163.17,64.94Z"/><path class="cls-9" d="M163.52,51.22A120,120,0,1,1,78.71,86.36,120,120,0,0,1,163.52,51.22Z"/><path class="cls-10" d="M163.71,77.44a80,80,0,1,1-56.57,23.43A80,80,0,0,1,163.71,77.44Z"/><path class="cls-11" d="M163.52,133.09a22.45,22.45,0,0,1,5.36.56c1.37.34,2.22.82,2.22,1.35s-.85,1-2.22,1.35a25.82,25.82,0,0,1-10.72,0c-1.37-.35-2.22-.82-2.22-1.35s.85-1,2.22-1.35A22.5,22.5,0,0,1,163.52,133.09Z"/><path class="cls-12" d="M163.71,118.44a20,20,0,1,1-14.14,5.86A20,20,0,0,1,163.71,118.44Z"/><path class="cls-13" d="M163.71,105.44a40,40,0,1,1-28.28,11.71A40,40,0,0,1,163.71,105.44Z"/><path class="cls-13" d="M163.71,90.44A60,60,0,1,1,121.28,108,60,60,0,0,1,163.71,90.44Z"/></svg>