<svg id="a20c48fb-929f-471c-8be9-9df795afdcf1" xmlns="http://www.w3.org/2000/svg" viewBox="0 0 649.66 516.23"><defs><style>.cls-1{fill:#f2f2f2;}.cls-2{fill:#fff;}.cls-3{fill:#d91c5c;}.cls-4{fill:#3f3d56;}.cls-5{fill:#262261;}.cls-6{fill:#a0616a;}.cls-7{fill:#2f2e41;}.cls-8{fill:#ccc;}.cls-9{fill:#90278e;}.cls-10{fill:#652d90;}</style></defs><path class="cls-1" d="M484.63,510c-9-7.6-14.45-19.6-13-31.29s10.31-22.43,21.81-24.91,24.63,4.39,28.13,15.63c1.92-21.67,4.14-44.25,15.66-62.71,10.44-16.72,28.51-28.67,48.09-30.81s40.21,5.94,52.43,21.4,15.2,37.93,6.65,55.68c-6.3,13.07-17.91,22.8-30.08,30.72a194.17,194.17,0,0,1-132.77,29" transform="translate(-0.01 0)"/><path class="cls-2" d="M618.36,382.33a320.38,320.38,0,0,0-94.12,127.26c-.9,2.2,2.67,3.16,3.56,1A316.79,316.79,0,0,1,621,384.94C622.82,383.44,620.19,380.84,618.36,382.33Z" transform="translate(-0.01 0)"/><path class="cls-3" d="M158.84,515.23h-51a6.5,6.5,0,0,1-6.5-6.5v-106a6.51,6.51,0,0,1,6.5-6.5h51a6.51,6.51,0,0,1,6.5,6.5v106A6.51,6.51,0,0,1,158.84,515.23Z" transform="translate(-0.01 0)"/><path class="cls-4" d="M279.84,516.23h-51a7.5,7.5,0,0,1-7.5-7.5v-206a7.51,7.51,0,0,1,7.5-7.5h51a7.52,7.52,0,0,1,7.5,7.5v206A7.51,7.51,0,0,1,279.84,516.23Zm-51-219a5.51,5.51,0,0,0-5.5,5.5v206a5.5,5.5,0,0,0,5.5,5.5h51a5.51,5.51,0,0,0,5.5-5.5v-206a5.52,5.52,0,0,0-5.5-5.5Z" transform="translate(-0.01 0)"/><path class="cls-4" d="M400.84,516.23h-51a7.5,7.5,0,0,1-7.5-7.5v-337a7.51,7.51,0,0,1,7.5-7.5h51a7.52,7.52,0,0,1,7.5,7.5v337A7.51,7.51,0,0,1,400.84,516.23Zm-51-350a5.51,5.51,0,0,0-5.5,5.5v337a5.5,5.5,0,0,0,5.5,5.5h51a5.51,5.51,0,0,0,5.5-5.5v-337a5.52,5.52,0,0,0-5.5-5.5Z" transform="translate(-0.01 0)"/><path class="cls-5" d="M523,515.73H472a6.5,6.5,0,0,1-6.5-6.5v-475a6.51,6.51,0,0,1,6.5-6.5h51a6.51,6.51,0,0,1,6.5,6.5v475A6.51,6.51,0,0,1,523,515.73Z" transform="translate(-0.01 0)"/><path class="cls-6" d="M205.78,222.36a10.05,10.05,0,0,0-8.71-11.24,9.54,9.54,0,0,0-1.77-.07l-17.78-32.61-4,14,12.18,29.89a10.11,10.11,0,0,0,20.08,0Z" transform="translate(-0.01 0)"/><polygon class="cls-6" points="68.81 351.11 78.71 358.34 111.31 323.59 96.69 312.92 68.81 351.11"/><path class="cls-7" d="M91.1,381.48,60,358.76h0l8.78-12h0l19.1,13.95a14.88,14.88,0,0,1,3.24,20.8Z" transform="translate(-0.01 0)"/><polygon class="cls-6" points="121.19 389.38 133.46 389.38 139.29 342.09 121.19 342.09 121.19 389.38"/><path class="cls-7" d="M157.11,400.76H118.57V385.87h23.65a14.89,14.89,0,0,1,14.89,14.89Z" transform="translate(-0.01 0)"/><path class="cls-7" d="M158,204.94s6,58-9,98l-11,76H119l2-90-7-80S128,172.94,158,204.94Z" transform="translate(-0.01 0)"/><polygon class="cls-7" points="93.02 208.94 113.02 277.94 74.02 339.94 93.52 356.44 138.01 286.94 125.02 201.94 93.02 208.94"/><circle class="cls-6" cx="144.02" cy="29.65" r="24.56"/><path class="cls-8" d="M123.52,63.44s15-10,32,12l4.5,138.5s-13-18-40-1-33-2-33-2S68,67.94,123.52,63.44Z" transform="translate(-0.01 0)"/><path class="cls-8" d="M154.31,75.09h0a17.51,17.51,0,0,1,16.54,16.56L174,151.94l21,57-12,10-39-68-8-55.89a17.51,17.51,0,0,1,14.85-19.81A17.78,17.78,0,0,1,154.31,75.09Z" transform="translate(-0.01 0)"/><path class="cls-7" d="M126,48.08c4,4.27,11.47,2,12-3.87a6.87,6.87,0,0,0,0-1.36c-.27-2.59-1.76-4.94-1.4-7.67a4,4,0,0,1,.73-1.88c3.2-4.29,10.71,1.91,13.73-2,1.86-2.37-.32-6.12,1.1-8.78,1.87-3.5,7.43-1.77,10.91-3.7,3.88-2.13,3.65-8.08,1.1-11.7-3.12-4.41-8.57-6.76-14-7.1S139.43,1.17,134.4,3.13c-5.71,2.22-11.38,5.3-14.89,10.33-4.28,6.11-4.69,14.32-2.55,21.47C118.26,39.27,122.7,44.58,126,48.08Z" transform="translate(-0.01 0)"/><path class="cls-4" d="M648.48,515.81H1.19a1.19,1.19,0,0,1,0-2.38H648.48a1.19,1.19,0,0,1,0,2.38Z" transform="translate(-0.01 0)"/><path class="cls-9" d="M279.84,513.43h-51c-3.59,0-6.5-5.34-6.5-11.92V307.15c0-6.58,2.91-11.91,6.5-11.92h51c3.59,0,6.49,5.34,6.5,11.92V501.51C286.33,508.09,283.43,513.42,279.84,513.43Z" transform="translate(-0.01 0)"/><path class="cls-10" d="M400.84,513.43h-51c-3.59,0-6.5-8.5-6.5-19V185.2c0-10.47,2.91-19,6.5-19h51c3.59,0,6.49,8.5,6.5,19V494.46C407.33,504.93,404.43,513.41,400.84,513.43Z" transform="translate(-0.01 0)"/></svg>