<svg id="bb554b9e-b999-4ef3-b2f2-4c0395b94ae2" xmlns="http://www.w3.org/2000/svg" viewBox="0 0 926.62 600.08"><defs><style>.cls-1{fill:#ffb8b8;}.cls-2{fill:#2f2e41;}.cls-3{fill:#4b4196;}.cls-4{fill:#ccc;}.cls-5{fill:#f2f2f2;}.cls-6{fill:#fff;}.cls-7{fill:#3f3d56;}.cls-8{opacity:0.49;}.cls-10,.cls-11,.cls-12,.cls-13,.cls-14,.cls-15,.cls-9{fill:none;stroke-linecap:round;stroke-miterlimit:10;stroke-width:10px;}.cls-9{stroke:#652d90;}.cls-10,.cls-11,.cls-9{stroke-dasharray:0 31.42;}.cls-10{stroke:#262261;}.cls-11{stroke:#90278e;}.cls-12{stroke:#eb008b;stroke-dasharray:0 32.51;}.cls-13{stroke:#ec297b;}.cls-13,.cls-14{stroke-dasharray:0 31.41;}.cls-14,.cls-15{stroke:#d91c5c;}.cls-15{stroke-dasharray:0 31.41;}</style></defs><circle class="cls-1" cx="150.53" cy="254.87" r="24.56"/><polygon class="cls-1" points="67.54 549.2 73.76 559.76 117.47 540.8 108.3 525.21 67.54 549.2"/><path class="cls-2" d="M69.41,544.47l12.24,20.81h0a15.38,15.38,0,0,1-5.45,21.06h0l-.43.26-20-34.07Z" transform="translate(0 0)"/><polygon class="cls-1" points="139.6 587.26 151.86 587.26 157.69 539.97 139.6 539.97 139.6 587.26"/><path class="cls-2" d="M136.47,583.26h24.15A15.37,15.37,0,0,1,176,598.64h0v.5H136.47Z" transform="translate(0 0)"/><path class="cls-2" d="M90.31,558.61a4.49,4.49,0,0,1-3.62-1.83L74.86,540.72a4.5,4.5,0,0,1,1-6.29l.17-.12,52.61-35.14L96.86,415.69l67.88,5.6L167,493a36,36,0,0,1-18,32.42L92.56,558A4.54,4.54,0,0,1,90.31,558.61Z" transform="translate(0 0)"/><path class="cls-2" d="M140,577.66a4.5,4.5,0,0,1-4.49-4.34L133,503.44l30.81-1.63-2.45,70.39a4.49,4.49,0,0,1-4.2,4.33l-16.87,1.12Z" transform="translate(0 0)"/><path class="cls-3" d="M172.6,435.17c-7.84,0-35.21-8.82-44.72-12-1.42,1.14-9.23,7-18.35,5.91-5.63-.66-10.58-3.84-14.72-9.46C85.66,407.24,97,354,108.05,311.53a34.27,34.27,0,0,1,40.53-24.88h0A34.58,34.58,0,0,1,174.66,312c2.09,8.5.3,18.49-1,25.79-.61,3.44-1.1,6.15-.93,7.48.64,5.15,4.22,85.89,1.92,89.34C174.38,435,173.67,435.17,172.6,435.17Z" transform="translate(0 0)"/><path class="cls-1" d="M143.93,435.31a10.74,10.74,0,0,0,2.2-15,10.57,10.57,0,0,0-1.26-1.41l.48-97.84-23,3.83,6.77,95a10.8,10.8,0,0,0,14.85,15.48Z" transform="translate(0 0)"/><path class="cls-3" d="M149.26,383.86H124.43a4.52,4.52,0,0,1-4.5-4.46l-.6-67.29a17.6,17.6,0,1,1,35.2-.32v.36l-.77,67.26A4.52,4.52,0,0,1,149.26,383.86Z" transform="translate(0 0)"/><path class="cls-2" d="M144.28,279.33c-11.25,0-21.85-8.87-23.8-19.94a28.56,28.56,0,0,1,.92-13,35,35,0,0,1,43.41-23.63,35.46,35.46,0,0,1,4.52,1.68c3,1.36,6,3.32,7.35,6.32s.52,7.19-2.5,8.54c-2,.89-4.44.45-6.18,1.72-2.51,1.82-1.87,5.69-.75,8.58s2.39,6.39.51,8.85c-1.75,2.3-5.25,2.23-8,1.37s-5.48-2.32-8.35-2c-4.19.43-7.2,4.59-7.76,8.77s.75,8.35,2,12.36Z" transform="translate(0 0)"/><path class="cls-4" d="M259,600.08H1a1,1,0,0,1,0-2H259a1,1,0,0,1,0,2Z" transform="translate(0 0)"/><path class="cls-5" d="M910.12,434.55H269.28a16.52,16.52,0,0,1-16.5-16.5V22.89a12.1,12.1,0,0,1,12.09-12.08H914.32a12.3,12.3,0,0,1,12.3,12.29v395A16.52,16.52,0,0,1,910.12,434.55Z" transform="translate(0 0)"/><path class="cls-6" d="M889.4,413.72H292.16c-8.76,0-15.88-6.67-15.88-14.87V54.74c0-6.08,5.28-11,11.77-11H893.32c6.59,0,12,5,12,11.2V398.85C905.28,407.05,898.16,413.72,889.4,413.72Z" transform="translate(0 0)"/><path class="cls-7" d="M926.39,25H252.55v-8.4A16.57,16.57,0,0,1,269.11,0H909.83a16.57,16.57,0,0,1,16.56,16.55Z" transform="translate(0 0)"/><circle class="cls-6" cx="282.65" cy="12.5" r="4.28"/><circle class="cls-6" cx="298.91" cy="12.5" r="4.28"/><circle class="cls-6" cx="315.16" cy="12.5" r="4.28"/><g class="cls-8"><circle class="cls-9" cx="582.98" cy="226.11" r="100" transform="translate(10.87 478.46) rotate(-45)"/><circle class="cls-10" cx="583.33" cy="232.39" r="120"/><circle class="cls-11" cx="583.48" cy="218.61" r="80" transform="translate(16.32 476.61) rotate(-45)"/><path class="cls-12" d="M583.33,194.26c4.18,0,7.58.85,7.58,1.91s-3.4,1.91-7.58,1.91-7.58-.85-7.58-1.91S579.14,194.26,583.33,194.26Z" transform="translate(0 0)"/><circle class="cls-13" cx="583.48" cy="199.61" r="20" transform="translate(-31.97 238.48) rotate(-22.5)"/><circle class="cls-14" cx="583.48" cy="206.61" r="40" transform="translate(-34.65 239.02) rotate(-22.5)"/><circle class="cls-15" cx="583.48" cy="211.61" r="60" transform="translate(21.27 474.56) rotate(-45)"/></g><path class="cls-4" d="M576.61,119H459.8a6.57,6.57,0,0,1,0-13.13H576.61a6.57,6.57,0,1,1,0,13.13Z" transform="translate(0 0)"/><path class="cls-4" d="M721.76,119H605a6.57,6.57,0,0,1,0-13.13H721.76a6.57,6.57,0,1,1,0,13.13Z" transform="translate(0 0)"/><path class="cls-4" d="M721.76,143.84H518.55a6.57,6.57,0,0,1,0-13.14H721.76a6.57,6.57,0,0,1,0,13.14Z" transform="translate(0 0)"/><path class="cls-4" d="M576.61,93.73H459.8a6.57,6.57,0,0,1,0-13.14H576.61a6.57,6.57,0,0,1,0,13.14Z" transform="translate(0 0)"/><path class="cls-4" d="M640.89,94.07H607.71a6.57,6.57,0,0,1,0-13.13h33.18a6.57,6.57,0,0,1,0,13.13Z" transform="translate(0 0)"/><path class="cls-4" d="M493,143.84H459.8a6.57,6.57,0,0,1,0-13.14H493a6.57,6.57,0,1,1,0,13.14Z" transform="translate(0 0)"/><path class="cls-4" d="M576.61,352H459.8a6.57,6.57,0,0,1,0-13.13H576.61a6.57,6.57,0,1,1,0,13.13Z" transform="translate(0 0)"/><path class="cls-4" d="M721.76,352H605a6.57,6.57,0,1,1,0-13.13H721.76a6.57,6.57,0,0,1,0,13.13Z" transform="translate(0 0)"/><path class="cls-4" d="M721.76,376.84H518.55a6.57,6.57,0,0,1,0-13.14H721.76a6.57,6.57,0,0,1,0,13.14Z" transform="translate(0 0)"/><path class="cls-4" d="M576.61,326.73H459.8a6.57,6.57,0,0,1,0-13.14H576.61a6.57,6.57,0,0,1,0,13.14Z" transform="translate(0 0)"/><path class="cls-4" d="M640.89,327.07H607.71a6.57,6.57,0,0,1,0-13.13h33.18a6.57,6.57,0,1,1,0,13.13Z" transform="translate(0 0)"/><path class="cls-4" d="M493,376.84H459.8a6.57,6.57,0,0,1,0-13.14H493a6.57,6.57,0,0,1,0,13.14Z" transform="translate(0 0)"/><path class="cls-3" d="M546.1,281.46a9.37,9.37,0,0,1-6.62-2.71l-43.91-43.36a9.16,9.16,0,0,1-.08-12.94l.08-.08,43.73-43.19a9.71,9.71,0,0,1,13.65,0h0a9.71,9.71,0,0,1,0,13.68l-32.5,32.5a5.41,5.41,0,0,0,0,7.65l32.32,32.32a9.42,9.42,0,0,1-6.67,16.08Z" transform="translate(0 0)"/><path class="cls-3" d="M616.07,281.46a9.42,9.42,0,0,1-6.67-16.08l32.32-32.32a5.41,5.41,0,0,0,0-7.65l-32.49-32.5a9.67,9.67,0,0,1,0-13.68h0a9.7,9.7,0,0,1,13.64,0l43.73,43.19a9.15,9.15,0,0,1,.08,12.94.3.3,0,0,1-.08.08l-43.91,43.36A9.37,9.37,0,0,1,616.07,281.46Z" transform="translate(0 0)"/></svg>