<svg id="Layer_1" data-name="Layer 1" xmlns="http://www.w3.org/2000/svg" viewBox="0 0 250 250"><defs><style>.cls-1,.cls-2,.cls-3,.cls-4,.cls-5,.cls-6,.cls-7{fill:none;stroke-linecap:round;stroke-miterlimit:10;stroke-width:10px;}.cls-1{stroke:#652d90;}.cls-1,.cls-2,.cls-3{stroke-dasharray:0 31.42;}.cls-2{stroke:#262261;}.cls-3{stroke:#90278e;}.cls-4{stroke:#eb008b;stroke-dasharray:0 32.51;}.cls-5{stroke:#ec297b;}.cls-5,.cls-6{stroke-dasharray:0 31.41;}.cls-6,.cls-7{stroke:#d91c5c;}.cls-7{stroke-dasharray:0 31.41;}</style></defs><path class="cls-1" d="M171.46,73.18a100,100,0,1,1-70.71,29.29A99.68,99.68,0,0,1,171.46,73.18Z" transform="translate(-46.81 -54.46)"/><path class="cls-2" d="M171.81,59.46A120,120,0,1,1,87,94.6,119.62,119.62,0,0,1,171.81,59.46Z" transform="translate(-46.81 -54.46)"/><path class="cls-3" d="M172,85.68a80,80,0,1,1-56.57,23.43A79.75,79.75,0,0,1,172,85.68Z" transform="translate(-46.81 -54.46)"/><path class="cls-4" d="M171.81,141.33a22.77,22.77,0,0,1,5.36.56c1.37.34,2.22.82,2.22,1.35s-.85,1-2.22,1.35a25.93,25.93,0,0,1-10.72,0c-1.37-.35-2.22-.82-2.22-1.35s.85-1,2.22-1.35A22.77,22.77,0,0,1,171.81,141.33Z" transform="translate(-46.81 -54.46)"/><path class="cls-5" d="M172,126.68a20,20,0,1,1-14.14,5.86A19.94,19.94,0,0,1,172,126.68Z" transform="translate(-46.81 -54.46)"/><path class="cls-6" d="M172,113.68a40,40,0,1,1-28.28,11.71A39.87,39.87,0,0,1,172,113.68Z" transform="translate(-46.81 -54.46)"/><path class="cls-7" d="M172,98.68a60,60,0,1,1-42.43,17.57A59.81,59.81,0,0,1,172,98.68Z" transform="translate(-46.81 -54.46)"/></svg>