<svg id="_06c42c9d-6d9c-45ee-a61b-17902c1dca73" data-name="06c42c9d-6d9c-45ee-a61b-17902c1dca73" xmlns="http://www.w3.org/2000/svg" xmlns:xlink="http://www.w3.org/1999/xlink" viewBox="0 0 1145.57 819.91"><defs><style>.cls-1,.cls-6,.cls-9{fill:#4b4196;}.cls-1,.cls-14,.cls-4,.cls-6,.cls-7,.cls-8{isolation:isolate;}.cls-1,.cls-14,.cls-15,.cls-7,.cls-8{opacity:0.1;}.cls-2{fill:url(#linear-gradient);}.cls-3,.cls-4{fill:#fff;}.cls-4{opacity:0.04;}.cls-5,.cls-7{fill:#5a5773;}.cls-6{opacity:0.2;}.cls-10{fill:url(#linear-gradient-2);}.cls-11{fill:#c37098;}.cls-12{fill:#3f3d56;}.cls-13,.cls-18,.cls-19,.cls-20,.cls-21,.cls-22,.cls-23,.cls-24,.cls-25{fill:none;}.cls-14{stroke:#4b4196;}.cls-14,.cls-18,.cls-19,.cls-20,.cls-21,.cls-22,.cls-23,.cls-24,.cls-25{stroke-miterlimit:10;}.cls-16{fill:#535461;}.cls-17{fill:#9d9cb5;}.cls-18{stroke:#535461;stroke-width:2px;}.cls-19{stroke:#652d90;}.cls-19,.cls-20,.cls-21,.cls-22,.cls-23,.cls-24,.cls-25{stroke-linecap:round;stroke-width:10px;}.cls-19,.cls-20,.cls-21{stroke-dasharray:0 31.42;}.cls-20{stroke:#262261;}.cls-21{stroke:#90278e;}.cls-22{stroke:#eb008b;stroke-dasharray:0 32.51;}.cls-23{stroke:#ec297b;}.cls-23,.cls-24{stroke-dasharray:0 31.41;}.cls-24,.cls-25{stroke:#d91c5c;}.cls-25{stroke-dasharray:0 31.41;}</style><linearGradient id="linear-gradient" x1="591.3" y1="173.92" x2="591.3" y2="712.25" gradientTransform="matrix(1, 0, 0, -1, 0, 820)" gradientUnits="userSpaceOnUse"><stop offset="0" stop-color="gray" stop-opacity="0.25"/><stop offset="0.54" stop-color="gray" stop-opacity="0.12"/><stop offset="1" stop-color="gray" stop-opacity="0.1"/></linearGradient><linearGradient id="linear-gradient-2" x1="944.34" y1="-34.62" x2="944.34" y2="530.72" gradientTransform="matrix(1, 0, 0, -1, -26.97, 779.96)" xlink:href="#linear-gradient"/></defs><path class="cls-1" d="M1127.43,551.22C1100.86,606,1046.91,642.68,991,666.85c-75.27,32.55-158.16,45.46-239.91,40q-21.5-1.43-42.85-4.57A540.78,540.78,0,0,1,565,660.56q-19.74-8.89-38.68-19.41a494.13,494.13,0,0,1-60.46-39.54q-7.23-5.52-14.26-11.32c-3.25-2.68-6.47-5.42-9.74-8.08-6.9-5.61-14-10.94-21.92-14.93a78.61,78.61,0,0,0-7.34-3.24c-25.08-9.54-54-5.94-80.11,1.5C312.6,571.2,293.24,579,273.4,584.48a196,196,0,0,1-26.91,5.72A143.19,143.19,0,0,1,186,584.89l-1.67-.52q-4.2-1.32-8.33-2.89l-1.67-.64q-4-1.55-7.83-3.31l-1.67-.76q-4-1.86-7.83-3.93c-.92-.48-1.83-1-2.73-1.49a163.7,163.7,0,0,1-39.16-30.49c-.33-.33-.64-.67-1-1-1.59-1.72-3.15-3.47-4.66-5.26-.56-.66-1.12-1.32-1.67-2-1.79-2.19-3.52-4.42-5.19-6.71-.25-.33-.49-.67-.73-1A144.48,144.48,0,0,1,85,494.4c-.14-.33-.27-.67-.39-1q-2-5.14-3.65-10.47c-.45-1.48-.88-3-1.26-4.48-.13-.44-.25-.89-.36-1.33-5.52-21.73-6.15-44.32-6.15-66.78v-7.85c.16-36.33.72-73.28,6.08-109.11a4.55,4.55,0,0,1,.11-.74,338.79,338.79,0,0,1,7.31-35.82A264.18,264.18,0,0,1,99,220.52c12.33-29,30.26-55.39,50.17-79.85C199.35,79.12,265.12,27.45,342.1,8.11c82.95-20.83,175.14-.87,242,52.4,20.4,16.24,38.73,35.47,61.64,47.92,20,10.84,43.41,15.33,64.83,6.8,17.7-7,29.22-10.55,49.1-9.48A411.7,411.7,0,0,1,880.08,131c1.56.57,3.12,1.16,4.67,1.75C985.46,171.24,1072,247.79,1117,346.16q1.79,3.9,3.47,7.86C1147.33,416.69,1157,490.14,1127.43,551.22Z"/><ellipse class="cls-1" cx="120.3" cy="728.81" rx="88.28" ry="14.18"/><ellipse class="cls-1" cx="912.26" cy="804.71" rx="156.53" ry="15.2"/><rect class="cls-2" x="116.14" y="107.75" width="950.33" height="538.33" rx="12.49"/><rect class="cls-3" x="117.65" y="115.32" width="947.42" height="528.97" rx="12.49"/><rect class="cls-3" x="117.65" y="115.32" width="947.42" height="528.97" rx="12.49"/><rect class="cls-4" x="117.65" y="115.32" width="947.42" height="528.97" rx="12.49"/><path class="cls-5" d="M1060.26,109.25H122.46a4.81,4.81,0,0,0-4.81,4.81v20.33H1065V114.06A4.81,4.81,0,0,0,1060.26,109.25Z"/><g id="_6c975d28-8d47-4ade-9154-b3b78f637b65" data-name="6c975d28-8d47-4ade-9154-b3b78f637b65"><circle class="cls-3" cx="136.57" cy="121.82" r="6.5"/><circle class="cls-3" cx="154.07" cy="121.82" r="6.5"/><circle class="cls-3" cx="171.57" cy="121.82" r="6.5"/></g><rect class="cls-6" x="195.68" y="181.67" width="254.25" height="21.58"/><rect class="cls-7" x="195.68" y="268.2" width="791.36" height="331.96"/><path class="cls-8" d="M651.85,564h-7.53V549.41a30.08,30.08,0,1,0-60.15-.63V564h-7.52a12.57,12.57,0,0,0-12.53,12.53v60.15a12.58,12.58,0,0,0,12.53,12.54h75.2a12.58,12.58,0,0,0,12.53-12.54V576.57A12.56,12.56,0,0,0,651.85,564Zm-33.21,39.1v21.54a4.5,4.5,0,0,1-4.16,4.52,4.4,4.4,0,0,1-4.6-4.19c0-.07,0-.14,0-.21V603.13a10,10,0,1,1,8.77,0ZM635.56,564H592.94V549a21.31,21.31,0,0,1,42.61,0Z"/><path class="cls-9" d="M657.85,565h-7.53V550.41a30.08,30.08,0,1,0-60.15-.63V565h-7.52a12.57,12.57,0,0,0-12.53,12.53v60.15a12.58,12.58,0,0,0,12.53,12.54h75.2a12.58,12.58,0,0,0,12.53-12.54V577.57A12.56,12.56,0,0,0,657.85,565Zm-33.21,39.1v21.54a4.5,4.5,0,0,1-4.17,4.52,4.39,4.39,0,0,1-4.59-4.19,1.48,1.48,0,0,1,0-.21V604.13a10,10,0,1,1,8.77,0ZM641.56,565H598.94V550a21.31,21.31,0,0,1,42.61,0Z"/><rect class="cls-7" x="906.94" y="236.25" width="80.1" height="18.91"/><path class="cls-10" d="M1014.3,809.29a28.61,28.61,0,0,0-2.68-7.61l-12-17.92h.07s-1.89-9,0-13.42S993,755.05,993,755.05s-1.05-2.73,1.69-6.09-1.69-13.2-1.69-13.2-2.1-20.55-2.31-23.69-1.9-20.54-1.9-20.54l-4-36.89-7.12-97.77-.13-1.83c.88-.43,1.35-.7,1.35-.7l-1.42-54.06,1.23-1.11c10.74-9.72,35.51-32.22,35.26-32.71s-3-37.57-3.32-46.85a56,56,0,0,0-4.26-19.18c-.62-1.23-2.41-9.34-3.15-12.77-.2-.94-.33-1.53-.33-1.53s-7.26-13.84-6.63-20.13,1.89-11-13.59-13.2c0,0-13-1.94-20.74-7.23A59.11,59.11,0,0,0,947,338.13s-4.34-8-7.36-5.29a42.06,42.06,0,0,1-2.85-8.91l-.09-.56a29.48,29.48,0,0,0,11.64-16.66c.1-.38.18-.77.27-1.15a3.25,3.25,0,0,0,.93.17c2.63,0,4.25-2.93,6.71-3.86,1-.39,2.23-.45,3-1.24a3,3,0,0,0,.66-2.21,5.61,5.61,0,0,0,0-.82v-.19c-.67-3.64-3.49-6.87-3.18-10.57.3-3.48,3.36-6.54,3.11-9.93a5.29,5.29,0,0,0-.07-.8v.12a8.55,8.55,0,0,0-2-3.54,11.39,11.39,0,0,0-4.12-3.46c-1.39-.61-3-.75-4.3-1.48-3.82-2.08-3.81-7.5-6.08-11.2A9.91,9.91,0,0,0,934,252c-2.84.28-5.41,1.79-8.22,2.28-3.84.68-7.75-.57-11.39-2s-7.33-3-11.24-3-8.14,2-9.32,5.69c-.63,2-.32,4.15-.8,6.18-.86,3.58-4,6.14-7.25,7.92-2,1.11-4.38,2.38-5,4.48v-.16a4.59,4.59,0,0,0-.1.51,3.75,3.75,0,0,0,0,.67,12.61,12.61,0,0,0,1.27,4.18,11.53,11.53,0,0,1-.06,8.06c-.74,1.9-2,3.57-2.72,5.46a10.75,10.75,0,0,0-.66,2.74v-.16c0,.43,0,.85,0,1.28a9,9,0,0,0,1,4.2,7.57,7.57,0,0,0,4.49,3.77c2,.46,3.25-1.5,5.36-1a8.42,8.42,0,0,1,1.11.35c.07.45.14.9.22,1.34a29.41,29.41,0,0,0,10.14,17.17,6.45,6.45,0,0,0,.11.73h0a66.71,66.71,0,0,1,.83,12.06s-3.15-4.61-7.47,4.29c0,0-11.27,6.5-15.16,7.24s-17.7,5.55-17.7,5.55a12.18,12.18,0,0,1-7.16,2.31c-4.31,0-7.89,9.43-7.37,14.56s-.31,8.91-4.32,9.12-1.82,8.34-1.79,8.48l-.37,1.75c-.78,3.58-2.48,11.26-3.08,12.46a56,56,0,0,0-4.27,19.18c-.31,9.28-3,46.22-3.31,46.85-.21.41,16.76,15.92,28.69,26.76l1.73,1.56-5.49,51.28a13.7,13.7,0,0,0,5.64,10c0,.6,0,1.21-.06,1.84-.24,6-.72,13.26-1.68,15.16-1.68,3.36-1.26,21.38-1.26,21.38s-1.69,36.68-3.79,40.67-2.53,12.36-1.9,14-2.11,45.69-2.11,45.69l-2.1,19.71s.63,18.86-1.27,19.28-3,13.42-3,13.42-6.73,9.22-3.79,12.57-.43,4.83-.74,5.66-6.42,4-2,15.72a3.45,3.45,0,0,0,.14.34c-4.14,5.75-17.26,24.3-16.46,27.12a7.42,7.42,0,0,0,3.5,4.2c3.09,1.85,8.39,2.71,16.82,0,14-4.51,13-7.76,13-7.76a5.94,5.94,0,0,1,5.9-5.66c5.79-.42,10.11-5.76,10.11-5.76l-.68-2.53-.93-3.5c.11-1,.82-2.75,4-3.72,4.85-1.47,3.58-10.69,3.58-10.69s-.42-9.64,1.68-10.9,1.27-17.19,1.27-17.19,2.32-11.53,5.68-19.29S891.71,672,891.71,672s2.73-22.64,5.26-29.14,4.85-24.73,4.85-24.73,15.59-30.19,15.79-36.9c0,0,2-6.29,4,.63s7.62,23.48,7.62,23.48l5.47,20.33,6.53,30.39,4.22,25.58s-.64,9.64,1,13,4,11.1,2.74,12.57,2.52,8.39,3.58,9.85,0,32.49,0,32.49,4.84,26.41,11.79,31a8,8,0,0,0,1.54.8c-.1,2.86-.2,6.69-.07,8.69a3.26,3.26,0,0,0,.22,1.31c.63.84,7.79,6.5,9.27,6.5s6.73,3.67,7,5.45,15.39,9.32,17.54,9.54,12.57,2.09,14-.84A4.93,4.93,0,0,0,1014.3,809.29ZM977,431.57l1.08.93s1.11,8.65,1.9,11.24-.16,7.63-.16,7.63a17.54,17.54,0,0,0,1.11,5.5c.94,1.89-1.9,6-1.9,6h-2.53l-.79-32.38ZM901.8,334.89v-.19a.63.63,0,0,0,0,.19ZM863,459.54a3.63,3.63,0,0,1-.16-2.67,8.41,8.41,0,0,0,.53-1.48,23.38,23.38,0,0,0,.58-4v-.05c-.09-.48-.9-5.12-.15-7.58s1.89-11.24,1.89-11.24l.72-.61,1.67-1.45a11.87,11.87,0,0,1,.12-1.43c.35,7.6.63,16,.18,16.42-.84.83-3.9,9-3.16,9.32.24.11-.09,3.38-.65,7.78A15.38,15.38,0,0,1,863,459.54Z"/><path class="cls-11" d="M943.55,342.88v12.44L918,368.15s-25.34-15.33-19.09-21.43c4-3.86,3.23-14.46,2.15-21.75h0c-.63-4.24-1.36-7.35-1.36-7.35s45.52-13,38.64-3.13c-2.3,3.3-2.48,7.57-1.71,11.8C938.22,334.68,943.55,342.88,943.55,342.88Z"/><path class="cls-12" d="M873.64,464.53l-3.29,40.52s-4.93-4.47-11.31-10.29c-11.83-10.79-28.63-26.22-28.43-26.63.31-.63,3-37.39,3.29-46.63a55.66,55.66,0,0,1,4.22-19.08c.6-1.2,2.29-8.84,3-12.41.24-1.11.39-1.83.39-1.83L847,386s23,25.66,23,26.13-1.57,20.18-1.57,20.18l-1.63,1.42-.71.61s-1.1,8.61-1.88,11.19.06,7.06.15,7.54h0a22.42,22.42,0,0,1-.57,4,8.3,8.3,0,0,1-.53,1.47,3.7,3.7,0,0,0,.16,2.66,15.86,15.86,0,0,0,1.72,3.29Z"/><path class="cls-12" d="M1013,468.13c.24.49-24.29,22.88-34.92,32.55l-4.82,4.37L970,464.53h8.45s2.82-4.07,1.88-5.95a17.34,17.34,0,0,1-1.09-5.47s.93-5,.15-7.59-1.88-11.19-1.88-11.19l-1.07-.92-1.27-1.11s-1.57-19.71-1.57-20.18,23-26.13,23-26.13l5.48,2.19s.12.59.32,1.53c.74,3.41,2.51,11.48,3.12,12.71a55.66,55.66,0,0,1,4.22,19.08C1010,430.74,1012.71,467.5,1013,468.13Z"/><path class="cls-12" d="M1013.13,812.07c-1.47,2.92-11.79,1-13.92.84s-17.17-7.73-17.38-9.5S976.41,798,975,798s-8.55-5.64-9.18-6.47a3.2,3.2,0,0,1-.21-1.3c-.22-3.43.21-12.26.21-12.26L996,779.63l14.7,22.11a28.65,28.65,0,0,1,2.66,7.57A5,5,0,0,1,1013.13,812.07Z"/><path class="cls-8" d="M1013.13,812.07c-1.47,2.92-11.79,1-13.92.84s-17.17-7.73-17.38-9.5S976.41,798,975,798s-8.55-5.64-9.18-6.47a3.2,3.2,0,0,1-.21-1.3c-.22-3.43.21-12.26.21-12.26L996,779.63l14.7,22.11a28.65,28.65,0,0,1,2.66,7.57A5,5,0,0,1,1013.13,812.07Z"/><path class="cls-8" d="M1013.13,812.07c-1.47,2.92-11.79,1-13.92.84s-17.17-7.73-17.38-9.5S976.41,798,975,798s-8.55-5.64-9.18-6.47a3.2,3.2,0,0,1-.21-1.3l9.8,6.2s6.26,4,7.93,6.37,14.83,7.3,15.92,7.4c.81.08,9.45-1.58,14.17-.88A5,5,0,0,1,1013.13,812.07Z"/><path class="cls-12" d="M870.13,793.82s-4.28,5.32-10,5.73a5.89,5.89,0,0,0-5.84,5.63s1,3.24-12.83,7.73c-8.35,2.69-13.6,1.84-16.66,0a7.47,7.47,0,0,1-3.47-4.18c-.94-3.33,17.52-28.68,17.52-28.68l16.8-1,12,5.42,1.84,6.87Z"/><path class="cls-8" d="M870.13,793.82s-4.28,5.32-10,5.73a5.89,5.89,0,0,0-5.84,5.63s1,3.24-12.83,7.73c-8.35,2.69-13.6,1.84-16.66,0a7.47,7.47,0,0,1-3.47-4.18c-.94-3.33,17.52-28.68,17.52-28.68l16.8-1,12,5.42,1.84,6.87Z"/><path class="cls-13" d="M870.13,793.82s-4.28,5.32-10,5.73a5.89,5.89,0,0,0-5.84,5.63s1,3.24-12.83,7.73c-8.35,2.69-13.6,1.84-16.66,0,7.87-.82,25.26-5.79,27-7.51,2.09-2.09,4.7-7.83,6.47-7.93,1.23-.08,7.48-3.84,11.23-6.17Z"/><path class="cls-8" d="M870.13,793.82s-4.28,5.32-10,5.73a5.89,5.89,0,0,0-5.84,5.63s1,3.24-12.83,7.73c-8.35,2.69-13.6,1.84-16.66,0,7.87-.82,25.26-5.79,27-7.51,2.09-2.09,4.7-7.83,6.47-7.93,1.23-.08,7.48-3.84,11.23-6.17Z"/><path class="cls-12" d="M998.94,770.56c-1.88,4.38,0,13.35,0,13.35s-28,1.46-34.84-3.13-11.68-30.88-11.68-30.88,1-30.87,0-32.33-4.8-8.34-3.55-9.8-1-9.18-2.71-12.52-1-12.93-1-12.93L941,656.86l-6.46-30.24L929,606.38S923.4,589.9,921.49,583s-3.93-.63-3.93-.63c-.2,6.68-15.64,36.72-15.64,36.72s-2.3,18.15-4.8,24.61-5.22,29-5.22,29-4,45.89-7.3,53.61S879,745.52,879,745.52s.84,15.86-1.25,17.11S876,773.48,876,773.48s1.25,9.17-3.55,10.64-4,4.59-4,4.59-26.7,4.38-31.08-7.31,1.67-14.8,2-15.64,3.66-2.29.74-5.64,3.75-12.51,3.75-12.51,1.05-12.93,2.92-13.35,1.26-19.19,1.26-19.19l2.08-19.61s2.72-43.81,2.09-45.48-.21-10,1.88-14,3.75-40.48,3.75-40.48-.42-17.93,1.25-21.27c1-1.89,1.42-9.16,1.66-15.09.18-4.53.22-8.28.22-8.28l23.36-8.76,30-9.59,25.24,12.1,36.93,7.09.46,6.37,7,97.31,4,36.71s1.67,17.31,1.88,20.44,2.29,23.58,2.29,23.58,4.38,9.8,1.67,13.14-1.67,6-1.67,6S1000.82,766.18,998.94,770.56Z"/><path class="cls-8" d="M938.39,314.49c-2.3,3.3-2.48,7.57-1.71,11.8A29.34,29.34,0,0,1,901.11,325h0c-.63-4.24-1.36-7.35-1.36-7.35S945.27,304.63,938.39,314.49Z"/><path class="cls-11" d="M949,301.73a29.3,29.3,0,1,1-29.3-29.3h0a29.16,29.16,0,0,1,29.3,29Z"/><polygon class="cls-8" points="955.13 350.42 945.53 521.37 893.38 510.42 883.05 441.89 893.28 349.89 900.98 350.88 914.56 352.61 928.01 353.44 942.59 351.82 955.13 350.42"/><polygon class="cls-9" points="955.13 351.67 945.53 522.62 893.38 511.67 883.05 443.14 893.28 351.15 900.98 352.13 914.56 353.86 928.01 354.69 942.59 353.07 955.13 351.67"/><path class="cls-12" d="M912.26,356.26l18.78.63-5.28,7.39s.37,14.93,2.88,19.21,1.77,70.4,1.77,70.4l-5,9.49-8.55-10.64.11-87.3Z"/><path class="cls-8" d="M912.26,356.26l18.78.63-5.28,7.39s.37,14.93,2.88,19.21,1.77,70.4,1.77,70.4l-5,9.49-8.55-10.64.11-87.3Z"/><polygon class="cls-8" points="941.67 336.86 924.15 356.26 934.16 366.69 950.75 350.52 941.67 336.86"/><polygon class="cls-9" points="941.67 335.61 924.15 355.01 934.16 365.44 950.75 349.27 941.67 335.61"/><polygon class="cls-8" points="916.75 355.32 899.01 337.59 897.34 346.87 905.48 367.21 916.75 355.32"/><polygon class="cls-9" points="917.37 354.07 899.64 336.34 897.97 345.62 906.11 365.96 917.37 354.07"/><path class="cls-8" d="M977.08,558.1a86.54,86.54,0,0,1-27,7.81c-17.21,2.19-28.47-19.71-28.47-19.71L915,554.75c-2.09,9.08-33.9,11.37-46.83,7.93a20.7,20.7,0,0,1-7.42-3.51c.18-4.53.22-8.28.22-8.28l23.36-8.76,30-9.59,25.24,12.1,36.93,7.09Z"/><path class="cls-8" d="M955.13,351.68l-9.59,170.94-52.16-10.95L883,443.15l10.22-92,7.7,1a93.27,93.27,0,0,1-1.13,10c-1.25,5.85,6.47,47.36,6.47,47.36s14.67,46.55,21.27,39.84,16-42.14,16-42.14c6.37-13.14.11-50-.36-50.74a14.63,14.63,0,0,1-.6-3.35Z"/><path class="cls-8" d="M977.66,484l.44,16.75-4.82,4.37L970,464.53h7.2Z"/><path class="cls-8" d="M864.4,453.06h0a22.42,22.42,0,0,1-.57,4c0-.37,0-.58-.08-.61C863.45,456.37,863.81,454.84,864.4,453.06Z"/><path class="cls-8" d="M873.64,464.53l-3.29,40.52s-4.93-4.47-11.31-10.29l.76-7.18s2.69-17.64,3.67-26.34a15.86,15.86,0,0,0,1.72,3.29Z"/><path class="cls-12" d="M901.93,337s-3.12-4.59-7.4,4.27c0,0-11.16,6.47-15,7.2S862,354,862,354a12.09,12.09,0,0,1-7.09,2.29c-4.28,0-7.83,9.39-7.31,14.5s-.31,8.87-4.27,9.08-1.78,8.44-1.78,8.44L868,418.52s1.67,27.85.84,28.69-3.86,9-3.13,9.28-4,31.08-4,31.08l-6.36,59.77s0,10,12.94,13.45S913,562,915.08,552.88l6.57-8.56s11.26,21.91,28.47,19.72,28.17-8.45,28.17-8.45L976.41,484l-1.25-51.63L1002,388.18s-7.2-13.77-6.57-20S997.33,357.23,982,355c0,0-12.93-1.93-20.55-7.2a58.81,58.81,0,0,0-14.7-7.4s-4.3-8-7.29-5.26c0,0,3,11.31,2.75,13s.47,9.33.94,10.12,6.73,37.6.36,50.74c0,0-9.35,35.43-16,42.14s-21.27-39.84-21.27-39.84-7.72-41.52-6.47-47.36S901.93,337,901.93,337Z"/><circle class="cls-12" cx="924.25" cy="469.12" r="4.59"/><circle class="cls-12" cx="924.25" cy="490.76" r="4.59"/><circle class="cls-8" cx="924.25" cy="469.12" r="4.59"/><circle class="cls-8" cx="924.25" cy="490.76" r="4.59"/><path class="cls-14" d="M965.5,764.3s18.84,1.46,20.71,2.92S965.5,764.3,965.5,764.3Z"/><path class="cls-14" d="M853.33,749.49s4,5,2.3,7.3S853.33,749.49,853.33,749.49Z"/><path class="cls-14" d="M858.13,767.52s7.3-4.8,10.22-1.61S858.13,767.52,858.13,767.52Z"/><path class="cls-8" d="M949,301.73a29,29,0,0,1-.94,7.41,3.34,3.34,0,0,1-1.94-3.26c.13-1.19.92-2.28.75-3.46-.25-1.82-2.45-2.56-3.61-4-1.43-1.74-1.12-4.27-1-6.52s-.45-5-2.56-5.77c-.63-.23-1.32-.25-1.93-.51-1.66-.7-2.17-2.76-3.28-4.18-2.22-2.86-6.63-2.8-10-1.44q-2.21,1-4.5,1.88a5.87,5.87,0,0,1-4.71-.35c-.66-.42-1.19-1-1.87-1.42-2.26-1.36-5.22,0-7.18,1.75s-3.53,4.1-6,5.17c-1.11.5-2.48.8-3,1.88a3.88,3.88,0,0,0-.32,1.87c0,3.89.46,7.84-.35,11.65-.52,2.45-2.24,5.23-4.73,4.93a4.67,4.67,0,0,1-.91-.23,29.3,29.3,0,1,1,58.1-5.42Z"/><path class="cls-12" d="M889.64,305.47c.75.17,1.46.56,2.23.66,2.49.3,4.21-2.48,4.73-4.93.81-3.81.39-7.76.36-11.65a3.76,3.76,0,0,1,.31-1.87c.57-1.08,1.94-1.38,3-1.88,2.42-1.08,4-3.38,6-5.17s4.91-3.11,7.17-1.75c.67.4,1.21,1,1.87,1.42a6,6,0,0,0,4.72.35c1.55-.46,3-1.27,4.49-1.88,3.34-1.36,7.76-1.41,10,1.43,1.11,1.43,1.62,3.48,3.28,4.18.61.26,1.3.29,1.93.52,2.11.79,2.65,3.52,2.56,5.77s-.39,4.78,1,6.52c1.16,1.42,3.36,2.16,3.61,4,.16,1.18-.62,2.28-.75,3.46a3.33,3.33,0,0,0,3.09,3.54h0c2.6,0,4.21-2.91,6.64-3.84,1-.39,2.21-.45,3-1.24a3.33,3.33,0,0,0,.62-2.71c-.49-3.83-3.56-7.16-3.23-11,.31-3.68,3.72-6.89,3-10.51a8.55,8.55,0,0,0-2-3.57,11.62,11.62,0,0,0-4.08-3.45c-1.39-.6-3-.74-4.27-1.47-3.78-2.07-3.77-7.47-6-11.15a9.79,9.79,0,0,0-9.12-4.54c-2.81.28-5.36,1.77-8.14,2.27-3.81.68-7.67-.57-11.28-2s-7.26-3-11.13-3-8.06,2-9.24,5.66c-.62,2-.31,4.14-.79,6.15-.84,3.57-4,6.11-7.18,7.88-2.19,1.22-4.82,2.62-5.08,5.11-.17,1.58.7,3,1.25,4.53a11.53,11.53,0,0,1-.06,8c-.73,1.89-2,3.55-2.69,5.43a9.75,9.75,0,0,0,.26,8,7.46,7.46,0,0,0,4.57,3.75C886.3,307,887.54,305,889.64,305.47Z"/><g class="cls-15"><path d="M896.6,299c-.52,2.45-2.25,5.23-4.74,4.93-.77-.1-1.47-.49-2.23-.66-2.09-.46-3.33,1.5-5.3,1a7.48,7.48,0,0,1-4.58-3.75,8.71,8.71,0,0,1-.93-3.27,9.09,9.09,0,0,0,.93,5.15,7.48,7.48,0,0,0,4.58,3.75c2,.46,3.21-1.5,5.3-1,.73.25,1.48.47,2.23.65,2.49.31,4.22-2.47,4.74-4.92a28.93,28.93,0,0,0,.48-6.57A24.55,24.55,0,0,1,896.6,299Z"/><path d="M882.9,284a11.49,11.49,0,0,0-.66-4.83,25.38,25.38,0,0,1-1.15-3.16,4.59,4.59,0,0,0-.1.51c-.17,1.57.71,3,1.25,4.53A11.47,11.47,0,0,1,882.9,284Z"/><path d="M959.3,278.69c-.47,2.84-2.77,5.51-3,8.5a6.61,6.61,0,0,0,0,1.54C956.8,285.24,959.89,282.15,959.3,278.69Z"/><path d="M959.47,299.79a2.27,2.27,0,0,1-.57,1.12c-.74.79-2,.85-3,1.24-2.43.93-4,3.87-6.64,3.84a3.35,3.35,0,0,1-3-2.32,5.18,5.18,0,0,0-.14.66,3.32,3.32,0,0,0,3.1,3.53h0c2.61,0,4.21-2.91,6.64-3.83,1-.39,2.22-.45,3-1.24a3.33,3.33,0,0,0,.62-2.71C959.5,300,959.48,299.88,959.47,299.79Z"/><path d="M946.93,299c-.25-1.82-2.45-2.56-3.61-4a5.49,5.49,0,0,1-1.1-3.28c-.08,1.86-.05,3.76,1.1,5.16s2.9,2,3.46,3.44A3.26,3.26,0,0,0,946.93,299Z"/><path d="M942.28,288.49c.08-2.25-.46-5-2.57-5.77-.62-.23-1.31-.26-1.92-.51-1.66-.7-2.18-2.76-3.28-4.18-2.23-2.85-6.64-2.8-10-1.44-1.5.61-2.93,1.42-4.49,1.88a5.87,5.87,0,0,1-4.71-.35c-.66-.42-1.2-1-1.87-1.42-2.27-1.36-5.23,0-7.18,1.75s-3.53,4.09-6,5.17c-1.12.5-2.48.8-3.06,1.88a4,4,0,0,0-.31,1.87v1.17a2.76,2.76,0,0,1,.29-1.16c.58-1.08,1.94-1.38,3.06-1.88,2.42-1.08,4-3.38,6-5.17s4.91-3.11,7.18-1.75c.67.4,1.21,1,1.87,1.41a5.87,5.87,0,0,0,4.71.35,45.19,45.19,0,0,0,4.49-1.87c3.35-1.36,7.76-1.42,10,1.43,1.1,1.42,1.62,3.48,3.28,4.18.61.26,1.3.29,1.92.52,1.71.64,2.39,2.56,2.54,4.46Z"/></g><g class="cls-15"><path d="M893,299a7.67,7.67,0,0,1,5.78-7.17,24,24,0,0,1,13.48.61c9.49,3.14-1.2,14.44-1.2,14.44s-7.11,7-13.74,2.11a10.39,10.39,0,0,1-3.87-6A15.32,15.32,0,0,1,893,299Z"/><path d="M945.2,299a7.67,7.67,0,0,0-5.79-7.17,24,24,0,0,0-13.47.61c-9.49,3.14,1.2,14.44,1.2,14.44s7.1,7,13.74,2.11a10.39,10.39,0,0,0,3.87-6A15.32,15.32,0,0,0,945.2,299Z"/><polygon points="910.5 291.48 910.5 291.95 927.83 291.95 927.83 291.39 910.5 291.48"/><path d="M916,296.49h.55V294.9s1.76-1.37,4.68,0v1.42h1v-.93h-.49s.2-1.93-3.06-1.62c0,0-2.62-.25-2.56,1.41h-.6Z"/></g><path class="cls-9" d="M893,298.31a7.67,7.67,0,0,1,5.78-7.17,24.16,24.16,0,0,1,13.48.61c9.49,3.15-1.2,14.44-1.2,14.44s-7.11,7-13.74,2.11a10.36,10.36,0,0,1-3.87-6A14.9,14.9,0,0,1,893,298.31Z"/><path class="cls-9" d="M945.2,298.31a7.67,7.67,0,0,0-5.79-7.17,24.13,24.13,0,0,0-13.47.61c-9.49,3.15,1.2,14.44,1.2,14.44s7.1,7,13.74,2.11a10.36,10.36,0,0,0,3.87-6A14.9,14.9,0,0,0,945.2,298.31Z"/><polygon class="cls-9" points="910.5 290.85 910.5 291.33 927.83 291.33 927.83 290.76 910.5 290.85"/><path class="cls-9" d="M916,295.86h.55v-1.59s1.76-1.36,4.68,0v1.43h1v-.94h-.49s.2-1.92-3.06-1.62c0,0-2.62-.24-2.56,1.41h-.6Z"/><rect class="cls-16" x="117.46" y="457.19" width="5.68" height="127.9"/><path class="cls-12" d="M158.84,584.7l-.36,5.76-.5,8.13-.21,3.39-.5,8.14-.22,3.39-.5,8.13-5.73,92.47a15.66,15.66,0,0,1-15.63,14.7H105.41a15.65,15.65,0,0,1-15.62-14.7L84,621.64l-.5-8.13-.21-3.39L82.83,602l-.21-3.39-.5-8.13-.36-5.76a8.1,8.1,0,0,1,7.59-8.59,4.35,4.35,0,0,1,.51,0h60.89a8.11,8.11,0,0,1,8.11,8.09C158.86,584.34,158.85,584.52,158.84,584.7Z"/><polygon class="cls-17" points="158.48 590.46 157.98 598.59 82.61 598.59 82.11 590.46 158.48 590.46"/><polygon class="cls-17" points="157.77 601.98 157.27 610.12 83.33 610.12 82.82 601.98 157.77 601.98"/><polygon class="cls-17" points="157.05 613.51 156.55 621.64 84.05 621.64 83.54 613.51 157.05 613.51"/><path class="cls-9" d="M73.44,505.13c33.08,23.93,46.86,61.37,46.86,61.37s-39.87-1.37-73-25.3S.44,479.83.44,479.83,40.35,481.2,73.44,505.13Z"/><path class="cls-18" d="M.49,479.83s41.38,23,54.65,42,65.16,44.68,65.16,44.68"/><path class="cls-9" d="M94.79,457c18,13,25.51,33.4,25.51,33.4s-21.7-.74-39.71-13.77-25.5-33.4-25.5-33.4S76.79,443.88,94.79,457Z"/><path class="cls-18" d="M55.09,443.14S77.61,455.64,84.83,466s35.47,24.32,35.47,24.32"/><path class="cls-9" d="M146.47,489.28c-20.69,22.73-25.06,52.43-25.06,52.43s29.16-7.15,49.84-29.88,25.06-52.44,25.06-52.44S167.15,466.54,146.47,489.28Z"/><path class="cls-18" d="M196.31,459.39s-26.94,23.3-33.79,39.36-41.11,43-41.11,43"/><circle class="cls-19" cx="582.47" cy="422.75" r="100" transform="translate(-128.33 535.69) rotate(-45)"/><circle class="cls-20" cx="582.82" cy="429.03" r="120" transform="translate(-132.67 537.78) rotate(-45)"/><circle class="cls-21" cx="582.97" cy="415.25" r="80" transform="translate(-122.88 533.85) rotate(-45)"/><path class="cls-22" d="M582.82,390.9c4.19,0,7.58.86,7.58,1.91s-3.39,1.91-7.58,1.91-7.58-.85-7.58-1.91S578.64,390.9,582.82,390.9Z"/><circle class="cls-23" cx="582.97" cy="396.25" r="20" transform="matrix(0.58, -0.81, 0.81, 0.58, -79.35, 637.49)"/><circle class="cls-24" cx="582.97" cy="403.25" r="40" transform="translate(-47.64 726.97) rotate(-61.85)"/><circle class="cls-25" cx="582.97" cy="408.25" r="60"/></svg>