<svg id="a75d69e6-d07c-4db3-9c83-72b2470e5561" xmlns="http://www.w3.org/2000/svg" viewBox="0 0 1108 728.49"><defs><style>.cls-1{fill:#f2f2f2;}.cls-2{fill:#3f3d56;}.cls-3,.cls-7,.cls-9{isolation:isolate;}.cls-3{opacity:0.1;}.cls-10,.cls-11,.cls-12,.cls-13,.cls-14,.cls-15,.cls-4{fill:none;stroke-miterlimit:10;}.cls-4{stroke:#3f3d56;stroke-width:4px;}.cls-5{fill:#4b4196;}.cls-6{fill:#656380;}.cls-7{opacity:0.2;}.cls-8{fill:#a0616a;}.cls-9{opacity:0.03;}.cls-10{stroke:#652d90;}.cls-10,.cls-11,.cls-12,.cls-13,.cls-14,.cls-15{stroke-linecap:round;stroke-width:10px;}.cls-10,.cls-11,.cls-12{stroke-dasharray:0 31.42;}.cls-11{stroke:#262261;}.cls-12{stroke:#90278e;}.cls-13{stroke:#eb008b;stroke-dasharray:0 32.51;}.cls-14{stroke:#ec297b;}.cls-14,.cls-15{stroke-dasharray:0 31.41;}.cls-15{stroke:#d91c5c;}</style></defs><path class="cls-1" d="M767.68,330.79l6.89-2.7,2-.81a59.85,59.85,0,0,1,15.28-115.77l-4.8,24.2,18.22-23.92h.16a59.87,59.87,0,0,1,51.16,67.45c-.15,1.13-.39,2.23-.6,3.34,5.61-4.43,10.87-9.32,14.81-15,8-11.54,10.71-25.76,13.47-43.17,5.47-34.48,10.4-69.34,14.84-104.18a59.83,59.83,0,0,1-42-65.36c.25-1.82.6-3.59,1-5.34.1-.44.2-.88.31-1.31.43-1.69.91-3.35,1.47-5,.09-.27.21-.52.3-.78a36.11,36.11,0,0,1,1.65-4c.22-.5.44-1,.67-1.47.69-1.43,1.42-2.83,2.22-4.19.27-.45.56-.88.83-1.33.62-1,1.27-2,1.94-2.93.36-.5.71-1,1.08-1.49l.27-.39h0a59.82,59.82,0,0,1,74.64-17l-6.24,31.49,18-23.64a59.5,59.5,0,0,1,16.32,68.62h.07c-.17.4-.38.78-.55,1.18-.33.74-.67,1.47-1,2.2-.46.93-1,1.84-1.45,2.74-.38.68-.75,1.36-1.16,2-.59,1-1.23,1.9-1.87,2.83-.38.54-.73,1.1-1.12,1.63a49.89,49.89,0,0,1-3.26,4c-.4.45-.83.86-1.25,1.3-.81.86-1.62,1.71-2.48,2.52-.53.5-1.09,1-1.64,1.46-.79.7-1.6,1.38-2.43,2-.59.47-1.19.92-1.79,1.36-.87.63-1.75,1.22-2.64,1.81-.6.39-1.2.78-1.81,1.15-1,.61-2.05,1.17-3.1,1.72-.53.27-1,.57-1.59.83-1.58.77-3.2,1.48-4.85,2.11-.31.12-.64.21-.95.32a42.35,42.35,0,0,1-4.18,1.35c-.61.17-1.23.31-1.85.46-1.15.28-2.31.54-3.48.76q-1,.18-2.07.33c-1.15.17-2.31.3-3.48.4-.69.06-1.37.12-2.07.16-1.26.06-2.53.07-3.8.06h-.25q-2.82,22-5.92,44a59.82,59.82,0,0,1,83.68-12.46c.92.68,1.83,1.4,2.72,2.14l-15.68,26.58,25.21-16.59a59.69,59.69,0,0,1,11.5,44.16,58.54,58.54,0,0,1-4.5,15.94,59.83,59.83,0,0,1-111.19-4c-.23,1.48-.45,3-.68,4.46-2.44,15.35-5.47,34.46-16.23,50-7.29,10.56-17.33,18.36-27.09,25.22q-9.52,6.7-19.48,12.77a59.93,59.93,0,0,1-24.53,13.74q-16,8.19-32.69,14.81l-6.95,2.72c-6.25,2.44-12.65,4.94-19,7.6,1,.09,2,.17,3,.3a59.91,59.91,0,0,1,50.86,49.05l-42.31,23.11,42.18-1.89A59.25,59.25,0,0,1,797,450.13a59.87,59.87,0,0,1-82.7,11.74l2.1,3.91c1.4,2.58,2.78,5.15,4.12,7.7,18.33,34.74,19.66,64.74,3.75,84.49l-13-10.45c15.49-19.22,3.2-49.77-5.5-66.27-1.32-2.5-2.68-5-4-7.56C690,451.86,676.65,427.12,682,400.79,690,361.09,733.05,344.29,767.68,330.79Z" transform="translate(0 -2.69)"/><path class="cls-1" d="M269.6,519l-5.38-2.11c-.52-.2-1-.43-1.54-.63a46.75,46.75,0,0,0-11.94-90.42l3.75,18.9-14.22-18.68h-.13a46.75,46.75,0,0,0-40,52.66v0c.12.89.31,1.74.47,2.61a55.89,55.89,0,0,1-11.56-11.73c-6.23-9-8.37-20.12-10.53-33.71-4.23-26.93-8.07-54.15-11.52-81.33a46.72,46.72,0,0,0,32.77-51c-.2-1.42-.47-2.8-.79-4.17l-.24-1c-.34-1.32-.71-2.62-1.15-3.88-.07-.21-.16-.41-.24-.61-.39-1.07-.82-2.12-1.28-3.15-.18-.38-.35-.77-.53-1.15-.54-1.11-1.11-2.2-1.73-3.26-.21-.36-.44-.7-.65-1-.49-.78-1-1.55-1.52-2.29-.28-.39-.55-.79-.84-1.17l-.21-.3h0a46.75,46.75,0,0,0-58.29-13.32l4.88,24.6-14.07-18.46A46.48,46.48,0,0,0,110.36,328h0c.13.31.29.61.43.92.26.58.52,1.15.8,1.72s.74,1.43,1.14,2.13c.29.54.58,1.07.9,1.59.46.75,1,1.48,1.46,2.21.3.42.57.86.88,1.27.8,1.08,1.65,2.12,2.54,3.13.31.35.65.67,1,1,.63.67,1.27,1.33,1.94,2,.41.4.85.77,1.28,1.14q.93.82,1.89,1.59c.46.36.93.71,1.4,1.06.68.49,1.37,1,2.06,1.41.47.31.94.61,1.42.9.79.48,1.6.91,2.42,1.34.42.22.82.45,1.24.66,1.24.6,2.5,1.15,3.79,1.64.24.1.5.16.74.25,1.07.39,2.16.75,3.27,1.06.47.13,1,.24,1.44.35.9.22,1.8.43,2.72.6l1.61.26c.9.13,1.81.23,2.72.31.54.05,1.07.09,1.62.12,1,.05,2,.06,3,.05h.19q2.21,17.22,4.62,34.41a46.7,46.7,0,0,0-65.32-9.83c-.74.54-1.46,1.1-2.16,1.69l12.14,20.64L83.81,390.64a46.56,46.56,0,0,0-9,34.49,45.86,45.86,0,0,0,3.53,12.46,46.73,46.73,0,0,0,86.84-3.12c.18,1.15.35,2.32.53,3.48,1.9,12,4.27,26.92,12.67,39.08,5.7,8.24,13.54,14.33,21.16,19.69q7.44,5.23,15.21,10a46.82,46.82,0,0,0,19.16,10.74c8.32,4.26,16.84,8.14,25.54,11.56l5.42,2.13c4.88,1.9,9.88,3.85,14.81,5.93-.78.07-1.57.13-2.36.24a46.77,46.77,0,0,0-39.72,38.27l33,18-32.94-1.47a46.79,46.79,0,0,0,73.57,29.2c-.55,1-1.09,2-1.64,3-1.09,2-2.17,4-3.22,6-14.31,27.13-15.35,50.57-2.92,66l10.13-8.16c-12.1-15-2.5-38.87,4.3-51.76,1-2,2.09-3.92,3.16-5.9,9.19-17,19.61-36.37,15.46-56.94C330.29,542.67,296.64,529.59,269.6,519Z" transform="translate(0 -2.69)"/><ellipse class="cls-2" cx="554" cy="704.99" rx="554" ry="23.5"/><ellipse class="cls-3" cx="554" cy="704.99" rx="554" ry="23.5"/><ellipse class="cls-2" cx="554" cy="691.99" rx="554" ry="23.5"/><path class="cls-4" d="M85,686.32c-3-5.51.4-12.26,4.28-17.18s8.61-10,8.51-16.29c-.14-9-9.7-14.31-17.33-19.08A84.78,84.78,0,0,1,64.9,621.26a23.09,23.09,0,0,1-4.78-6.4c-1.58-3.52-1.53-7.52-1.43-11.38q.5-19.26,1.9-38.48" transform="translate(0 -2.69)"/><path class="cls-5" d="M46.11,564.29a14,14,0,0,1,7-11.49L56.25,559l-.09-7.52a13.64,13.64,0,0,1,4.62-.56,14,14,0,1,1-14.67,13.36Z" transform="translate(0 -2.69)"/><path class="cls-5" d="M71.14,659.29a14,14,0,0,0,26.5-5.76,13.81,13.81,0,0,0-.91-5.69,14,14,0,0,0-26.27.15l8.77,7.13-9.64-2.24A13.88,13.88,0,0,0,71.14,659.29Z" transform="translate(0 -2.69)"/><path class="cls-5" d="M78.07,632a14,14,0,0,0,4.46-27.54l.07,5.79L79.42,604h0a14,14,0,1,0-1.31,28Z" transform="translate(0 -2.69)"/><path class="cls-5" d="M44,609.37a14,14,0,1,0,1.32-28h0a13.93,13.93,0,0,0-7.52,1.78l2.48,6.8-5.11-4.9a14,14,0,0,0-4.53,9.69,13.15,13.15,0,0,0,.36,3.85A14,14,0,0,0,44,609.37Z" transform="translate(0 -2.69)"/><path class="cls-3" d="M48,568c3.24.36,6.39,1.37,9.64,1.57s6.82-.58,8.88-3.1c1.11-1.37,1.66-3.09,2.59-4.57a10.08,10.08,0,0,1,3.54-3.33,14,14,0,0,1-25.26,12.08,14.16,14.16,0,0,1-1-2.76C46.94,567.94,47.47,568,48,568Z" transform="translate(0 -2.69)"/><path class="cls-3" d="M44,609.37a14,14,0,0,0,13.35-20,10.4,10.4,0,0,0-2.82,2.83c-1,1.51-1.61,3.25-2.78,4.64-2.19,2.57-5.92,3.41-9.31,3.25s-6.66-1.11-10-1.42c-.47,0-.94-.08-1.41-.09A14,14,0,0,0,44,609.37Z" transform="translate(0 -2.69)"/><path class="cls-3" d="M78.07,632a14,14,0,0,0,13.47-19.76,11.3,11.3,0,0,0-3,2.85c-1.09,1.54-1.77,3.31-3,4.73-2.36,2.64-6.34,3.57-9.93,3.48s-6.82-.93-10.28-1.19A14,14,0,0,0,78.07,632Z" transform="translate(0 -2.69)"/><path class="cls-3" d="M71.14,659.29a14,14,0,0,0,26.5-5.76,13.81,13.81,0,0,0-.91-5.69,14.11,14.11,0,0,0-3.08,2.74c-1.34,1.63-2.21,3.47-3.76,5-2.87,2.82-7.5,4-11.62,4.09A63,63,0,0,1,71.14,659.29Z" transform="translate(0 -2.69)"/><path class="cls-6" d="M106.19,680s-11.08-.34-14.41-2.72-17-5.22-17.87-1.4-16.65,19-4.14,19.06,29.06-2,32.39-4S106.19,680,106.19,680Z" transform="translate(0 -2.69)"/><path class="cls-7" d="M69.54,693.59c12.51.1,29.06-2,32.4-4,2.53-1.54,3.54-7.09,3.88-9.65h.37s-.7,8.93-4,11-19.89,4.08-32.39,4c-3.61,0-4.86-1.31-4.79-3.22C65.48,692.85,66.86,693.59,69.54,693.59Z" transform="translate(0 -2.69)"/><path class="cls-4" d="M1055,695.32c-3-5.51.4-12.26,4.28-17.18s8.61-10,8.51-16.29c-.14-9-9.7-14.31-17.33-19.08a84.78,84.78,0,0,1-15.56-12.51,23.09,23.09,0,0,1-4.78-6.4c-1.58-3.52-1.53-7.52-1.43-11.38q.49-19.26,1.9-38.48" transform="translate(0 -2.69)"/><path class="cls-5" d="M1016.11,573.29a14,14,0,0,1,7-11.49l3.14,6.21-.09-7.52a13.64,13.64,0,0,1,4.62-.56,14,14,0,1,1-14.68,13.36Z" transform="translate(0 -2.69)"/><path class="cls-5" d="M1041.14,668.29a14,14,0,0,0,26.5-5.76,13.81,13.81,0,0,0-.91-5.69,14,14,0,0,0-26.27.15l8.77,7.13-9.64-2.24A13.88,13.88,0,0,0,1041.14,668.29Z" transform="translate(0 -2.69)"/><path class="cls-5" d="M1048.07,641a14,14,0,0,0,4.46-27.54l.07,5.79-3.18-6.29h0a14,14,0,0,0-1.31,28Z" transform="translate(0 -2.69)"/><path class="cls-5" d="M1014,618.37a14,14,0,1,0-6.2-26.22l2.48,6.8-5.11-4.9a14,14,0,0,0-4.53,9.69,13.15,13.15,0,0,0,.36,3.85A14,14,0,0,0,1014,618.37Z" transform="translate(0 -2.69)"/><path class="cls-3" d="M1018,577c3.24.36,6.39,1.37,9.64,1.57s6.82-.58,8.88-3.1c1.11-1.37,1.66-3.09,2.59-4.57a10.08,10.08,0,0,1,3.54-3.33,14,14,0,0,1-25.26,12.08,14.16,14.16,0,0,1-1-2.76C1016.94,576.94,1017.47,577,1018,577Z" transform="translate(0 -2.69)"/><path class="cls-3" d="M1014,618.37a14,14,0,0,0,13.35-20,10.4,10.4,0,0,0-2.82,2.83c-1,1.51-1.61,3.25-2.78,4.64-2.19,2.57-5.92,3.41-9.31,3.25s-6.66-1.11-10-1.42c-.47,0-.94-.08-1.41-.09A14,14,0,0,0,1014,618.37Z" transform="translate(0 -2.69)"/><path class="cls-3" d="M1048.07,641a14,14,0,0,0,13.47-19.76,11.3,11.3,0,0,0-3,2.85c-1.09,1.54-1.77,3.31-3,4.73-2.36,2.64-6.34,3.57-9.93,3.48s-6.82-.93-10.28-1.19A14,14,0,0,0,1048.07,641Z" transform="translate(0 -2.69)"/><path class="cls-3" d="M1041.14,668.29a14,14,0,0,0,26.5-5.76,13.81,13.81,0,0,0-.91-5.69,14.11,14.11,0,0,0-3.08,2.74c-1.34,1.63-2.21,3.47-3.76,5-2.87,2.82-7.5,4-11.62,4.09A63,63,0,0,1,1041.14,668.29Z" transform="translate(0 -2.69)"/><path class="cls-6" d="M1076.19,689s-11.08-.34-14.41-2.72-17-5.22-17.87-1.4-16.65,19-4.14,19.06,29.06-2,32.39-4S1076.19,689,1076.19,689Z" transform="translate(0 -2.69)"/><path class="cls-7" d="M1039.54,702.59c12.51.1,29.06-2,32.4-4,2.53-1.54,3.54-7.09,3.88-9.65h.37s-.7,8.93-4,11-19.89,4.08-32.39,4c-3.61,0-4.86-1.31-4.79-3.22C1035.48,701.85,1036.86,702.59,1039.54,702.59Z" transform="translate(0 -2.69)"/><path class="cls-2" d="M545.53,294.05a9.36,9.36,0,1,1-9.36-9.36h0a9.31,9.31,0,0,1,9.36,9.27Z" transform="translate(0 -2.69)"/><path class="cls-2" d="M528.69,296.41a9.38,9.38,0,0,1,7-13.84,9.36,9.36,0,1,0-.66,18.71,8.8,8.8,0,0,0,1.45-.06A9.38,9.38,0,0,1,528.69,296.41Z" transform="translate(0 -2.69)"/><rect class="cls-2" x="524.47" y="304.39" width="25.07" height="39.11"/><rect class="cls-3" x="524.47" y="304.39" width="25.07" height="39.11"/><path class="cls-8" d="M484.86,449s-2.68,7.35-9,8.36a42.73,42.73,0,0,0-10,2.67l15,9.69,8-1s1-10.37,4.34-12.71S484.86,449,484.86,449Z" transform="translate(0 -2.69)"/><path class="cls-8" d="M593.5,449s2.68,7.35,9,8.36a42.73,42.73,0,0,1,10,2.67l-15,9.69-8-1s-1-10.37-4.35-12.71S593.5,449,593.5,449Z" transform="translate(0 -2.69)"/><path class="cls-2" d="M520.29,384.13a11.66,11.66,0,0,0-5.34,6s-7.33,2.34-11.37,8.68c0,0-5,5.36-5.68,8s-8.34,18.72-8.34,18.72-7.69,25.07-11.69,27.74c0,0,12.7-2.67,15,10,0,0,3,0,6.35-11.7s11.36-26.07,11.36-26.07,2.68-10,5-11.7,6-9.36,9.36-7.33,25.4-.34,25.4-.34,13,6,13.35,10,2.67,4.34,3,7.69,12.7,29.75,12.7,29.75,2.34,7.32,3,9c0,0,7.33-17.72,17-7.69,0,0-.34-6.69-3.34-10.71s-16-35.43-16-35.43-1.33-4.68-2.67-6-11.71-12-15.38-12c0,0-2-5-4.34-5.68Z" transform="translate(0 -2.69)"/><path class="cls-2" d="M490.21,466.37a16.29,16.29,0,0,1-15.91-2.14,31.65,31.65,0,0,0-7.1-4.11c-3.55-1.44-7.79-2.5-9.08-.1-2.34,4.35,28.41,15,28.41,15S490.55,472.72,490.21,466.37Z" transform="translate(0 -2.69)"/><path class="cls-2" d="M588.15,466.37a16.3,16.3,0,0,0,15.92-2.14,31.36,31.36,0,0,1,7.09-4.11c3.55-1.44,7.79-2.5,9.08-.1,2.34,4.35-28.41,15-28.41,15S587.82,472.72,588.15,466.37Z" transform="translate(0 -2.69)"/><path class="cls-8" d="M531.22,329.16a3.91,3.91,0,0,1-1.5,3,8,8,0,0,1-2.77.66,6.46,6.46,0,0,0-4.41,3.82,9.9,9.9,0,0,0-.43,5.94,23.54,23.54,0,0,0,.86,2.86,26.85,26.85,0,0,0,4,7.83,33.12,33.12,0,0,0,5.24,4.94,12.15,12.15,0,0,0,3.89,2.42,12,12,0,0,0,3,.4,6.79,6.79,0,0,0,3.72-.53c1.69-1,2.2-3.13,3.11-4.86.78-1.47,1.94-2.71,2.67-4.21a16.33,16.33,0,0,0,1.13-3.68l1.56-6.93c.57-2.52,1.08-5.36-.33-7.52a1.26,1.26,0,0,0-.42-.44,1.67,1.67,0,0,0-.86-.08,9.18,9.18,0,0,1-5.15-1.18,2.16,2.16,0,0,1-.65-.51,2.67,2.67,0,0,1-.4-1.19,12.2,12.2,0,0,0-.72-2.51,1.3,1.3,0,0,0-1.28-1,63.82,63.82,0,0,0-7.3-.76c-.8,0-2-.36-2.55.35S531.29,328.31,531.22,329.16Z" transform="translate(0 -2.69)"/><path class="cls-3" d="M531.22,329.16a3.91,3.91,0,0,1-1.5,3,8,8,0,0,1-2.77.66,6.46,6.46,0,0,0-4.41,3.82,9.9,9.9,0,0,0-.43,5.94,23.54,23.54,0,0,0,.86,2.86,26.85,26.85,0,0,0,4,7.83,33.12,33.12,0,0,0,5.24,4.94,12.15,12.15,0,0,0,3.89,2.42,12,12,0,0,0,3,.4,6.79,6.79,0,0,0,3.72-.53c1.69-1,2.2-3.13,3.11-4.86.78-1.47,1.94-2.71,2.67-4.21a16.33,16.33,0,0,0,1.13-3.68l1.56-6.93c.57-2.52,1.08-5.36-.33-7.52a1.26,1.26,0,0,0-.42-.44,1.67,1.67,0,0,0-.86-.08,9.18,9.18,0,0,1-5.15-1.18,2.16,2.16,0,0,1-.65-.51,2.67,2.67,0,0,1-.4-1.19,12.2,12.2,0,0,0-.72-2.51,1.3,1.3,0,0,0-1.28-1,63.82,63.82,0,0,0-7.3-.76c-.8,0-2-.36-2.55.35S531.29,328.31,531.22,329.16Z" transform="translate(0 -2.69)"/><path class="cls-5" d="M526.69,333.14a15.19,15.19,0,0,0-4-.63c-3.22-.08-6.67,1-8.53,3.67a8.63,8.63,0,0,0-1.3,6.46,13.25,13.25,0,0,0,2.94,6,18.48,18.48,0,0,1,2.25,3c.89,1.69.92,3.71,1.16,5.64.57,4.57,2.52,8.88,3.29,13.43s.11,9.82-3.48,12.71c-.61.49-1.34,1-1.39,1.77-.08,1.24,1.53,1.76,2.76,1.88,3.69.35,7.48.69,11.07-.26,1.48-.4,2.91-1,4.43-1.29,3.83-.72,7.69.75,11.53,1.46a51.36,51.36,0,0,0,8.4.68,4.56,4.56,0,0,0,1.94-.25,1.57,1.57,0,0,0,1-1.55,2.83,2.83,0,0,0-.67-1.13c-1.94-2.39-2.53-5.58-3.06-8.62l-1.78-10.21c-1-5.46-1.83-11.39.75-16.29,1.85-3.52,5.28-6,7.23-9.47a5.6,5.6,0,0,0,.88-3.54c-.3-1.74-1.87-3-3.48-3.72a13.09,13.09,0,0,0-9.82-.36,40.46,40.46,0,0,1-1,7.33l-.68,3.95a50.28,50.28,0,0,1-1.53,6.88,7.23,7.23,0,0,1-1.22,2.49,6.32,6.32,0,0,1-2.16,1.57,12.89,12.89,0,0,1-5.72,1.31,7.42,7.42,0,0,1-2.52-.39,10.49,10.49,0,0,1-3.48-2.44,5.44,5.44,0,0,1-.92-1,5.89,5.89,0,0,1-.63-1.51,34.2,34.2,0,0,1-1.08-4.21c-.16-1.1-.22-2.21-.3-3.31A76.78,76.78,0,0,0,526.69,333.14Z" transform="translate(0 -2.69)"/><path class="cls-8" d="M523.3,397.84s-1.33,17.72,7,20.73,1-14.71,1-14.71l-2.68-5.35Z" transform="translate(0 -2.69)"/><path class="cls-8" d="M551.71,397.84s1.34,17.72-7,20.73-1-14.71-1-14.71l2.68-5.35Z" transform="translate(0 -2.69)"/><path class="cls-3" d="M516,338.7,513.27,343s2.34,15,2.68,17.72a33.5,33.5,0,0,0,1.34,5.68s.33,8,.33,11,1.69,8,1.69,8a37.06,37.06,0,0,0,1.69,8.35c1.34,3.68,2.68,8,2.68,8s1.69-4.68,8.35,2.34a4.06,4.06,0,0,0,0-5.69s-2-9-2-13.7-3.68-27.07-3.68-27.07S524,332.32,516,338.7Z" transform="translate(0 -2.69)"/><path class="cls-5" d="M515.28,338.34l-2.67,4.35s2.34,15,2.67,17.71a34.87,34.87,0,0,0,1.35,5.69s.33,8,.33,11,1.69,8,1.69,8a36.62,36.62,0,0,0,1.69,8.35c1.34,3.69,2.68,8,2.68,8s1.69-4.68,8.36,2.34a4.05,4.05,0,0,0,0-5.68s-2-9-2-13.71-3.68-27.06-3.68-27.06S523.3,332,515.28,338.34Z" transform="translate(0 -2.69)"/><path class="cls-3" d="M559.41,336l1.69,2a61.66,61.66,0,0,1-2.38,25.76l-1.34,13s-2.34,11-2.67,13.71-.33,3-1,4a1.29,1.29,0,0,0,0,1.69l-2,7.33s-3-3.68-9,1c0,0-1.69-2.67-.34-5s1.33-3.34,1-4,1.34-4,1.34-4.68,2.35-16,2.35-16,1-15,2-20c.62-3.09.61-10,.5-14.8a5.66,5.66,0,0,1,9.58-4.23C559.21,335.79,559.31,335.88,559.41,336Z" transform="translate(0 -2.69)"/><path class="cls-5" d="M560.41,335.31l1.69,2a61.46,61.46,0,0,1-2.38,25.76l-1.34,13s-2.34,11-2.67,13.71-.34,3-1,4a1.29,1.29,0,0,0,0,1.69l-2,7.35s-3-3.68-9,1c0,0-1.69-2.68-.33-5s1.34-3.34,1-4,1.34-4,1.34-4.68S548,374.11,548,374.11s1-15,2-20.06.33-20.06.33-20.06A7.73,7.73,0,0,1,560.41,335.31Z" transform="translate(0 -2.69)"/><circle class="cls-8" cx="538.01" cy="314.59" r="13.37"/><path class="cls-3" d="M545,297.2a9.36,9.36,0,0,1-17.53.25,16.6,16.6,0,0,1,10.56-.23A9.49,9.49,0,0,1,545,297.2Z" transform="translate(0 -2.69)"/><path class="cls-2" d="M538,297.89s-25.74-9-19.39,34.77c0,0,5.69,3.67,10,1.33,0,0-3-30.41,8.69-29.08S547,333.33,547,333.33s6.69,2,8.7-1.69S555.06,291.9,538,297.89Z" transform="translate(0 -2.69)"/><path class="cls-3" d="M537.34,302.9c-8-.91-9.13,13.12-9,22,.1-8.84,1.59-20.86,9-20,8.35.95,9.72,15,9.82,23C547.25,320.6,546.45,304,537.34,302.9Z" transform="translate(0 -2.69)"/><path class="cls-3" d="M518.62,330.65a89.71,89.71,0,0,1-1-11.57,85.85,85.85,0,0,0,1,13.58s5.69,3.67,10,1.33c0,0-.07-.72-.15-1.93C524.18,334.24,518.62,330.65,518.62,330.65Z" transform="translate(0 -2.69)"/><path class="cls-3" d="M555.73,329.68c-1.87,3.42-7.8,1.92-8.6,1.69,0,1.24-.1,2-.1,2s6.69,2,8.7-1.69c.41-.76.62-2.89.56-5.75A10.42,10.42,0,0,1,555.73,329.68Z" transform="translate(0 -2.69)"/><path class="cls-4" d="M826.73,673c4.74-8.78-.64-19.54-6.82-27.37s-13.73-16-13.57-26c.23-14.35,15.45-22.81,27.62-30.42a134.77,134.77,0,0,0,24.79-19.93c3-3,5.87-6.31,7.62-10.21,2.52-5.6,2.45-12,2.29-18.12q-.79-30.7-3-61.34" transform="translate(0 -2.69)"/><path class="cls-5" d="M888.74,478.49a22.33,22.33,0,0,0-11.16-18.32l-5,9.9.15-12a22.39,22.39,0,1,0,16,20.41Z" transform="translate(0 -2.69)"/><path class="cls-5" d="M848.86,629.88a22.36,22.36,0,1,1,1.08-18l-14,11.37,15.37-3.57A22.2,22.2,0,0,1,848.86,629.88Z" transform="translate(0 -2.69)"/><path class="cls-5" d="M837.81,586.45a22.37,22.37,0,0,1-7.09-43.86l-.12,9.22,5.06-10h.06a22.37,22.37,0,0,1,2.41,44.67l-.32,0Z" transform="translate(0 -2.69)"/><path class="cls-5" d="M892.11,550.32A22.37,22.37,0,1,1,902,508.46l-4,10.83,8.13-7.8a22.37,22.37,0,0,1-14.07,38.83Z" transform="translate(0 -2.69)"/><path class="cls-3" d="M885.74,484.45c-5.17.57-10.19,2.18-15.37,2.5s-10.87-.92-14.14-5c-1.77-2.17-2.65-4.91-4.14-7.28a16.06,16.06,0,0,0-5.63-5.3,22.37,22.37,0,0,0,39.88,20.28,22.74,22.74,0,0,0,1.93-5.44C887.42,484.3,886.58,484.36,885.74,484.45Z" transform="translate(0 -2.69)"/><path class="cls-3" d="M892.11,550.32a22.39,22.39,0,0,1-21.28-31.91,16.37,16.37,0,0,1,4.5,4.51c1.59,2.4,2.56,5.18,4.43,7.39,3.48,4.09,9.44,5.43,14.84,5.19s10.6-1.78,16-2.28c.75-.06,1.5-.11,2.26-.13A22.37,22.37,0,0,1,892.11,550.32Z" transform="translate(0 -2.69)"/><path class="cls-3" d="M837.81,586.45A22.37,22.37,0,0,1,816.35,555a17.8,17.8,0,0,1,4.73,4.55c1.74,2.45,2.82,5.27,4.86,7.54,3.77,4.2,10.11,5.68,15.83,5.54,5.54-.12,10.87-1.48,16.38-1.9A22.37,22.37,0,0,1,837.81,586.45Z" transform="translate(0 -2.69)"/><path class="cls-3" d="M848.86,629.88a22.37,22.37,0,0,1-40.78-18.29A22.26,22.26,0,0,1,813,616c2.13,2.59,3.53,5.53,6,7.94,4.57,4.49,12,6.34,18.52,6.51A97.8,97.8,0,0,0,848.86,629.88Z" transform="translate(0 -2.69)"/><path class="cls-6" d="M793,662.85s17.65-.54,23-4.33,27.16-8.31,28.48-2.24,26.53,30.22,6.6,30.38-46.31-3.1-51.62-6.34S793,662.85,793,662.85Z" transform="translate(0 -2.69)"/><path class="cls-7" d="M851.4,684.59c-19.93.16-46.31-3.11-51.62-6.34-4-2.47-5.65-11.3-6.19-15.38H793s1.12,14.24,6.43,17.47,31.69,6.5,51.62,6.34c5.75,0,7.74-2.09,7.63-5.12C857.88,683.37,855.69,684.51,851.4,684.59Z" transform="translate(0 -2.69)"/><path class="cls-1" d="M323,42.86,304.75,54.43l11.08-20.15a18,18,0,0,0-11-3.94h-.3a21.72,21.72,0,0,1-3.78-.28L294.56,34l2.65-4.82A22,22,0,0,1,286.39,21l-11.07,7,7-12.72c-6.48-7.77-15.2-12.54-24.81-12.54-11.51,0-21.76,6.85-28.38,17.52a21.24,21.24,0,0,1-18.76,10.12h-.62c-12.71,0-23,14.41-23,32.19s10.3,32.18,23,32.18a17.18,17.18,0,0,0,8-2c8.29-4.31,19.17-4.39,27.85-.54a29,29,0,0,0,23.68,0c8.62-3.77,19.37-3.69,27.61.54a17.24,17.24,0,0,0,7.93,2c12.71,0,23-14.41,23-32.18A40.8,40.8,0,0,0,323,42.86Z" transform="translate(0 -2.69)"/><path class="cls-9" d="M288.59,90a34,34,0,0,0-19.72,2.14,29,29,0,0,1-23.67,0c-8.69-3.85-19.57-3.77-27.86.54a17.18,17.18,0,0,1-8,2c-11.29,0-20.68-11.38-22.64-26.38a21.51,21.51,0,0,0,5.64-6.08c6.66-10.66,16.87-17.53,28.38-17.53S242.36,51.36,249,61.91a21.8,21.8,0,0,0,18.76,10.31H268C277,72.23,284.8,79.44,288.59,90Z" transform="translate(0 -2.69)"/><path class="cls-1" d="M800.07,66.42,791,72.19l5.53-10a9,9,0,0,0-5.51-2h-.14a10.86,10.86,0,0,1-1.89-.14l-3.09,2,1.3-2.46a10.94,10.94,0,0,1-5.4-4.09L776.28,59l3.49-6.34A16.15,16.15,0,0,0,767.4,46.4c-5.75,0-10.86,3.42-14.16,8.74a10.57,10.57,0,0,1-9.36,5h-.31c-6.34,0-11.48,7.19-11.48,16s5.14,16,11.48,16a8.59,8.59,0,0,0,4-1,16.57,16.57,0,0,1,13.89-.27,14.55,14.55,0,0,0,11.81,0,16.59,16.59,0,0,1,13.77.27,8.59,8.59,0,0,0,4,1c6.34,0,11.48-7.18,11.48-16A20.24,20.24,0,0,0,800.07,66.42Z" transform="translate(0 -2.69)"/><path class="cls-9" d="M782.92,89.91A17,17,0,0,0,773.09,91a14.55,14.55,0,0,1-11.81,0,16.59,16.59,0,0,0-13.9.27,8.59,8.59,0,0,1-4,1c-5.64,0-10.32-5.67-11.3-13.15a10.89,10.89,0,0,0,2.82-3c3.3-5.32,8.42-8.73,14.16-8.73s10.79,3.37,14.09,8.63a10.83,10.83,0,0,0,9.36,5.14h.15C777.15,81.07,781,84.67,782.92,89.91Z" transform="translate(0 -2.69)"/><path class="cls-1" d="M204.34,215.86,219,225.14,210.12,209a14.52,14.52,0,0,1,8.85-3.15h.23a16.77,16.77,0,0,0,3-.22l5,3.14L225,204.9a17.72,17.72,0,0,0,8.67-6.58l8.87,5.62L237,193.75c5.19-6.22,12.18-10,19.87-10,9.23,0,17.44,5.48,22.75,14a17,17,0,0,0,15,8.11h.5c10.18,0,18.43,11.54,18.43,25.78s-8.25,25.79-18.43,25.79a13.86,13.86,0,0,1-6.43-1.61,26.6,26.6,0,0,0-22.31-.43,23.3,23.3,0,0,1-19,0,26.65,26.65,0,0,0-22.12.43,13.9,13.9,0,0,1-6.35,1.57c-10.19,0-18.44-11.54-18.44-25.79A32.72,32.72,0,0,1,204.34,215.86Z" transform="translate(0 -2.69)"/><path class="cls-9" d="M231.89,253.59a27.42,27.42,0,0,1,15.8,1.72,23.3,23.3,0,0,0,19,0,26.59,26.59,0,0,1,22.32.43,13.82,13.82,0,0,0,6.42,1.61c9.05,0,16.57-9.11,18.14-21.13a17.38,17.38,0,0,1-4.52-4.88c-5.31-8.54-13.52-14-22.75-14s-17.33,5.42-22.64,13.88a17.45,17.45,0,0,1-15,8.25h-.23C241.17,239.4,234.93,245.18,231.89,253.59Z" transform="translate(0 -2.69)"/><path class="cls-10" d="M537,429.89a100,100,0,1,1-70.71,29.29A100,100,0,0,1,537,429.89Z" transform="translate(0 -2.69)"/><path class="cls-11" d="M537.32,416.17a120,120,0,1,1-84.81,35.14A120,120,0,0,1,537.32,416.17Z" transform="translate(0 -2.69)"/><path class="cls-12" d="M537.51,442.39a80,80,0,1,1-56.57,23.43A80,80,0,0,1,537.51,442.39Z" transform="translate(0 -2.69)"/><path class="cls-13" d="M537.32,498a22.91,22.91,0,0,1,5.36.56c1.37.34,2.22.82,2.22,1.35s-.85,1-2.22,1.35a25.82,25.82,0,0,1-10.72,0c-1.37-.35-2.22-.82-2.22-1.35s.85-1,2.22-1.35A23,23,0,0,1,537.32,498Z" transform="translate(0 -2.69)"/><path class="cls-14" d="M537.51,483.39a20,20,0,1,1-14.14,5.86A20,20,0,0,1,537.51,483.39Z" transform="translate(0 -2.69)"/><path class="cls-15" d="M537.51,470.39a40,40,0,1,1-28.28,11.71A40,40,0,0,1,537.51,470.39Z" transform="translate(0 -2.69)"/><path class="cls-15" d="M537.51,455.39A60,60,0,1,1,495.08,473,60,60,0,0,1,537.51,455.39Z" transform="translate(0 -2.69)"/></svg>